<svg width="332" height="237" viewBox="0 0 332 237" fill="none" xmlns="http://www.w3.org/2000/svg">
<g filter="url(#filter0_i_2_169)">
<path d="M99.3607 19.2815C41.5119 52.649 -54.9324 178.436 39.9429 231.288C84.8216 256.288 115.24 185.555 178.194 183.76C241.148 181.964 273.663 206.107 310.469 189.28C334.791 178.16 342.673 133.011 310.469 84.4407C263.734 13.9567 178.084 -26.1268 99.3607 19.2815Z" fill="#F1F1FA"/>
</g>
<mask id="mask0_2_169" style="mask-type:alpha" maskUnits="userSpaceOnUse" x="0" y="0" width="332" height="237">
<path d="M99.3607 19.2815C41.5119 52.649 -54.9324 178.436 39.9429 231.288C84.8216 256.288 115.24 185.555 178.194 183.76C241.148 181.964 273.663 206.107 310.469 189.28C334.791 178.16 342.673 133.011 310.469 84.4407C263.734 13.9567 178.084 -26.1268 99.3607 19.2815Z" fill="#F1F1FA"/>
</mask>
<g mask="url(#mask0_2_169)">
<path d="M286.879 192.937L290.925 194.589L53.8887 260.371C-16.0623 252.941 -149.767 229.383 -124.976 194.589C-93.987 151.096 -59.1927 125 22.3564 125C120.5 125 133.585 130.343 286.879 192.937Z" fill="#BBBBD6"/>
<path d="M350.983 138C393.587 138 427.906 147.443 464 192.885L348.617 246C272.483 237.934 164.24 246.59 191.222 208.82C224.949 161.607 262.227 138 350.983 138Z" fill="#BBBBD6" stroke="#F1F1FA" stroke-width="4.34928"/>
<path d="M183.926 88.8721L184.568 88.8828C191.193 89.0768 197.501 91.8082 202.179 96.5264L202.625 96.9883C207.027 101.654 209.539 107.79 209.671 114.203L209.676 114.845L208.492 394.053C208.48 397.237 207.879 400.39 206.723 403.353L206.484 403.942C205.172 407.075 203.254 409.919 200.842 412.311C198.58 414.553 195.925 416.356 193.012 417.632L192.426 417.88C189.284 419.165 185.92 419.817 182.526 419.802V419.803H71.6533C57.3759 419.737 45.3427 407.596 45.4004 393.319L46.584 114.112V114.109L46.5957 113.468C46.7979 106.848 49.5345 100.548 54.2539 95.8779L54.7158 95.4316C59.5373 90.8918 65.9249 88.37 72.5635 88.4014L72.5645 88.4004L183.926 88.8721Z" fill="url(#paint0_linear_2_169)" stroke="black" stroke-width="3.2"/>
<path d="M158.345 107.506C158.336 106.525 158.691 105.579 159.336 104.847L159.469 104.703C160.197 103.954 161.192 103.523 162.237 103.502L183.801 103.602V103.603C187.928 103.631 191.877 105.291 194.784 108.221C197.691 111.15 199.32 115.109 199.318 119.235L198.164 391.765V391.766C198.149 395.907 196.49 399.872 193.553 402.791C190.615 405.71 186.639 407.342 182.498 407.331L71.3586 406.821H71.3596C67.3562 406.796 63.5207 405.234 60.6398 402.469L60.3635 402.198C57.4546 399.264 55.8272 395.297 55.8361 391.165L56.9885 118.636V118.633C56.9931 116.581 57.4022 114.551 58.1916 112.657C58.981 110.764 60.136 109.044 61.59 107.597C62.9531 106.24 64.5538 105.147 66.3117 104.372L66.6662 104.221C68.5629 103.44 70.5947 103.041 72.6457 103.046L91.5392 103.131H99.1115C100.092 103.17 101.022 103.566 101.728 104.241L101.866 104.38C102.591 105.144 102.986 106.162 102.967 107.215V111.155H102.968C102.933 112.935 103.599 114.658 104.825 115.95C106.06 117.25 107.76 118.008 109.552 118.057H109.584L151.677 118.25H151.707C153.492 118.219 155.192 117.483 156.436 116.203C157.602 115.003 158.277 113.415 158.34 111.751L158.345 111.417V107.506Z" fill="#F1F1FA" stroke="black" stroke-width="2.8"/>
<path d="M145.834 163.846C145.576 163.44 139.385 153.911 128.333 153.911C117.281 153.911 111.091 163.44 110.832 163.846C109.804 165.463 110.28 167.607 111.897 168.636C113.514 169.665 115.658 169.188 116.687 167.571C116.73 167.504 121.048 160.851 128.333 160.851C135.618 160.851 139.936 167.504 139.979 167.571C141.008 169.188 143.153 169.665 144.77 168.636C146.386 167.607 146.863 165.463 145.834 163.846ZM113.239 131.01C115.634 131.01 117.576 132.952 117.576 135.347C117.576 137.743 115.634 139.685 113.239 139.685C110.843 139.685 108.902 137.743 108.902 135.347C108.902 132.952 110.843 131.01 113.239 131.01ZM139.263 135.347C139.263 137.743 141.205 139.685 143.6 139.685C145.996 139.685 147.938 137.743 147.938 135.347C147.938 132.952 145.996 131.01 143.6 131.01C141.205 131.01 139.263 132.952 139.263 135.347Z" fill="url(#paint1_linear_2_169)"/>
<path d="M145.834 163.846C145.576 163.44 139.385 153.911 128.333 153.911C117.281 153.911 111.091 163.44 110.832 163.846C109.804 165.463 110.28 167.607 111.897 168.636C113.514 169.665 115.658 169.188 116.687 167.571C116.73 167.504 121.048 160.851 128.333 160.851C135.618 160.851 139.936 167.504 139.979 167.571C141.008 169.188 143.153 169.665 144.77 168.636C146.386 167.607 146.863 165.463 145.834 163.846ZM113.239 131.01C115.634 131.01 117.576 132.952 117.576 135.347C117.576 137.743 115.634 139.685 113.239 139.685C110.843 139.685 108.902 137.743 108.902 135.347C108.902 132.952 110.843 131.01 113.239 131.01ZM139.263 135.347C139.263 137.743 141.205 139.685 143.6 139.685C145.996 139.685 147.938 137.743 147.938 135.347C147.938 132.952 145.996 131.01 143.6 131.01C141.205 131.01 139.263 132.952 139.263 135.347Z" stroke="url(#paint2_linear_2_169)" stroke-width="2"/>
<path d="M145.834 163.846C145.576 163.44 139.385 153.911 128.333 153.911C117.281 153.911 111.091 163.44 110.832 163.846C109.804 165.463 110.28 167.607 111.897 168.636C113.514 169.665 115.658 169.188 116.687 167.571C116.73 167.504 121.048 160.851 128.333 160.851C135.618 160.851 139.936 167.504 139.979 167.571C141.008 169.188 143.153 169.665 144.77 168.636C146.386 167.607 146.863 165.463 145.834 163.846ZM113.239 131.01C115.634 131.01 117.576 132.952 117.576 135.347C117.576 137.743 115.634 139.685 113.239 139.685C110.843 139.685 108.902 137.743 108.902 135.347C108.902 132.952 110.843 131.01 113.239 131.01ZM139.263 135.347C139.263 137.743 141.205 139.685 143.6 139.685C145.996 139.685 147.938 137.743 147.938 135.347C147.938 132.952 145.996 131.01 143.6 131.01C141.205 131.01 139.263 132.952 139.263 135.347Z" stroke="black" stroke-width="2"/>
<path d="M214.977 80.4867C212.57 82.8944 212.57 86.8002 214.977 89.2081C217.386 91.6155 221.291 91.6155 223.7 89.2081C226.107 86.8002 226.107 82.8944 223.7 80.4867C221.291 78.0788 217.386 78.0788 214.977 80.4867Z" fill="#BBBBD6"/>
<path d="M219.339 65.8205C214.258 65.8205 209.478 67.7996 205.887 71.394C204.476 72.804 204.476 75.0894 205.887 76.4985C207.296 77.9086 209.581 77.9086 210.991 76.4985C213.219 74.2681 216.184 73.0402 219.339 73.0402C222.493 73.0402 225.459 74.2681 227.686 76.4985C228.392 77.2036 229.318 77.5559 230.239 77.5559C231.165 77.5559 232.086 77.2036 232.791 76.4985C234.201 75.0894 234.201 72.8041 232.791 71.394C229.2 67.7996 224.42 65.8205 219.339 65.8205Z" fill="#BBBBD6"/>
<path d="M219.339 53.9339C211.081 53.9339 203.318 57.1499 197.48 62.9886C196.07 64.3986 196.07 66.6843 197.48 68.0932C198.891 69.5032 201.176 69.5032 202.584 68.0932C207.059 63.6176 213.01 61.1532 219.339 61.1532C225.665 61.1532 231.616 63.6176 236.09 68.0932C236.795 68.7983 237.721 69.1508 238.642 69.1508C239.568 69.1508 240.49 68.7983 241.195 68.0932C242.604 66.6843 242.604 64.3986 241.195 62.9886C235.357 57.1499 227.596 53.9339 219.339 53.9339Z" fill="#BBBBD6"/>
<path d="M249.62 54.5658C241.533 46.4757 230.78 42.0212 219.339 42.0212C207.898 42.0212 197.144 46.4757 189.057 54.5658C187.648 55.976 187.648 58.2617 189.057 59.6706C189.763 60.3756 190.686 60.7278 191.61 60.7278C192.533 60.7278 193.459 60.3756 194.162 59.6706C200.886 52.9442 209.828 49.2405 219.339 49.2405C228.849 49.2405 237.789 52.9442 244.514 59.6706C245.923 61.0806 248.207 61.0793 249.618 59.6718C251.027 58.2617 251.027 55.976 249.62 54.5658Z" fill="#BBBBD6"/>
<path d="M219.12 73.1186C218.268 73.1186 217.53 72.8345 216.905 72.2664C216.337 71.6983 215.996 70.8746 215.882 69.7952L212.729 36.6467L212.644 35.7946C212.644 34.0335 213.241 32.6417 214.434 31.6191C215.683 30.5397 217.246 30 219.12 30C220.995 30 222.529 30.5397 223.722 31.6191C224.972 32.6417 225.597 34.0335 225.597 35.7946L225.511 36.732L222.359 69.7952C222.245 70.8746 221.876 71.6983 221.251 72.2664C220.683 72.8345 219.973 73.1186 219.12 73.1186ZM219.12 91.0137C217.302 91.0137 215.797 90.4172 214.604 89.2241C213.411 87.9743 212.815 86.4405 212.815 84.6226C212.815 82.8046 213.411 81.2992 214.604 80.1062C215.797 78.8564 217.302 78.2315 219.12 78.2315C220.938 78.2315 222.444 78.8564 223.637 80.1062C224.83 81.2992 225.426 82.8046 225.426 84.6226C225.426 86.4405 224.83 87.9743 223.637 89.2241C222.444 90.4172 220.938 91.0137 219.12 91.0137Z" fill="url(#paint3_linear_2_169)"/>
</g>
<defs>
<filter id="filter0_i_2_169" x="0" y="0" width="331.768" height="242.77" filterUnits="userSpaceOnUse" color-interpolation-filters="sRGB">
<feFlood flood-opacity="0" result="BackgroundImageFix"/>
<feBlend mode="normal" in="SourceGraphic" in2="BackgroundImageFix" result="shape"/>
<feColorMatrix in="SourceAlpha" type="matrix" values="0 0 0 0 0 0 0 0 0 0 0 0 0 0 0 0 0 0 127 0" result="hardAlpha"/>
<feOffset dy="6.1386"/>
<feGaussianBlur stdDeviation="8.1848"/>
<feComposite in2="hardAlpha" operator="arithmetic" k2="-1" k3="1"/>
<feColorMatrix type="matrix" values="0 0 0 0 0 0 0 0 0 0 0 0 0 0 0 0 0 0 0.25 0"/>
<feBlend mode="normal" in2="shape" result="effect1_innerShadow_2_169"/>
</filter>
<linearGradient id="paint0_linear_2_169" x1="114.671" y1="94.1355" x2="240.357" y2="368.234" gradientUnits="userSpaceOnUse">
<stop stop-color="#32187C"/>
<stop offset="1" stop-color="#302EA7"/>
</linearGradient>
<linearGradient id="paint1_linear_2_169" x1="125.301" y1="131.491" x2="133.398" y2="168.288" gradientUnits="userSpaceOnUse">
<stop stop-color="#32187C"/>
<stop offset="1" stop-color="#302EA7"/>
</linearGradient>
<linearGradient id="paint2_linear_2_169" x1="125.301" y1="131.491" x2="133.398" y2="168.288" gradientUnits="userSpaceOnUse">
<stop stop-color="#32187C"/>
<stop offset="1" stop-color="#302EA7"/>
</linearGradient>
<linearGradient id="paint3_linear_2_169" x1="218.086" y1="30.7688" x2="248.868" y2="59.8065" gradientUnits="userSpaceOnUse">
<stop stop-color="#32187C"/>
<stop offset="1" stop-color="#302EA7"/>
</linearGradient>
</defs>
</svg>
