<svg width="331" height="229" viewBox="0 0 331 229" fill="none" xmlns="http://www.w3.org/2000/svg">
<g filter="url(#filter0_i_205_2)">
<path d="M169.884 53.6691C144.025 83.935 122.476 60.4635 82.4572 50.5807C15.6257 34.0767 0.000110792 95.8091 0 144.467C-0.000110792 193.124 37.9468 226.617 70.5069 226.617C121.134 226.617 131.337 186.211 157.378 186.211C190.079 186.211 232.067 238.352 283.169 226.617C330.576 215.729 346.79 81.8312 311.49 31.433C263.467 -37.1285 195.742 23.4033 169.884 53.6691Z" fill="#F1F1FA"/>
</g>
<mask id="mask0_205_2" style="mask-type:alpha" maskUnits="userSpaceOnUse" x="0" y="0" width="331" height="229">
<path d="M169.884 53.6691C144.025 83.935 122.476 60.4635 82.4572 50.5807C15.6257 34.0767 0.000110792 95.8091 0 144.467C-0.000110792 193.124 37.9468 226.617 70.5069 226.617C121.134 226.617 131.337 186.211 157.378 186.211C190.079 186.211 232.067 238.352 283.169 226.617C330.576 215.729 346.79 81.8312 311.49 31.433C263.467 -37.1285 195.742 23.4033 169.884 53.6691Z" fill="#F1F1FA"/>
</mask>
<g mask="url(#mask0_205_2)">
<path d="M326.806 208.201L330.852 209.853L93.8156 275.636C23.8646 268.206 -109.84 244.647 -85.0487 209.853C-54.06 166.36 -19.2658 140.264 62.2833 140.264C160.427 140.264 173.512 145.607 326.806 208.201Z" fill="#BBBBD6"/>
<path d="M314.853 137.002C353.996 137.002 385.528 145.701 418.692 187.563L312.678 236.492C242.727 229.062 143.273 237.036 168.064 202.242C199.053 158.749 233.303 137.002 314.853 137.002Z" fill="#BBBBD6" stroke="#F1F1FA" stroke-width="4.34928"/>
<path d="M61.9214 133.153C68.3545 133.153 73.5893 138.388 73.5893 144.821V167.179H81.186V157.193C81.1861 152.457 85.015 148.619 89.7602 148.619C94.4875 148.619 98.3343 152.466 98.3344 157.193V169.566C98.3344 177.705 91.7124 184.327 83.5737 184.327H73.5893V225.45C73.5891 226.768 72.52 227.838 71.2016 227.838H52.6421C51.3235 227.838 50.2546 226.769 50.2544 225.45V199.793H40.269C32.1303 199.793 25.5083 193.171 25.5083 185.032V166.474C25.5083 161.737 29.3371 157.899 34.0825 157.899C38.8098 157.899 42.6567 161.746 42.6567 166.474V182.644H50.2544V144.821C50.2544 138.364 55.4789 133.153 61.9214 133.153Z" fill="#302EA7" stroke="black"/>
<path fill-rule="evenodd" clip-rule="evenodd" d="M260.278 228.807C262.694 229.667 265.293 230.136 268 230.139C268.008 230.139 268.016 230.139 268.024 230.139C268.032 230.139 268.04 230.139 268.048 230.139C270.755 230.136 273.354 229.667 275.771 228.807C275.78 228.807 275.79 228.807 275.799 228.807L281.88 228.82H281.882C282.322 228.82 282.679 228.464 282.68 228.023C282.681 227.582 282.325 227.224 281.883 227.223L279.275 227.217C282.245 225.559 284.815 223.266 286.799 220.523L291.722 217.391C292.094 217.154 292.203 216.661 291.966 216.289C291.73 215.917 291.237 215.806 290.864 216.044L288.688 217.428C290.004 214.836 290.846 211.966 291.1 208.931C291.105 208.919 291.111 208.907 291.116 208.894L293.512 203.305C293.686 202.899 293.498 202.43 293.092 202.256C292.691 202.083 292.217 202.27 292.044 202.675L291.09 204.902C290.825 201.886 289.987 199.007 288.647 196.394C288.646 196.359 288.644 196.323 288.639 196.288L287.778 190.268C287.716 189.832 287.312 189.528 286.874 189.591C286.437 189.654 286.134 190.058 286.197 190.495L286.565 193.072C284.803 190.733 282.577 188.712 279.957 187.134C279.581 186.906 279.089 187.028 278.862 187.406C278.634 187.784 278.756 188.274 279.134 188.502C281.739 190.072 283.927 192.112 285.616 194.481L282.965 193.246C282.563 193.06 282.09 193.234 281.905 193.633C281.718 194.033 281.891 194.508 282.291 194.694L287.134 196.95C288.563 199.674 289.403 202.715 289.558 205.903L287.853 203.346C287.608 202.978 287.113 202.879 286.745 203.124C286.378 203.369 286.279 203.865 286.524 204.232L289.515 208.717C289.2 212.651 287.825 216.29 285.676 219.348C285.548 219.446 285.456 219.578 285.407 219.723C284.306 221.22 283.017 222.571 281.575 223.74C284.083 220.702 285.591 216.81 285.591 212.572C285.591 209.169 284.637 205.942 282.899 203.191L283.192 199.866C283.231 199.427 282.906 199.039 282.467 199.001C282.019 198.968 281.641 199.287 281.602 199.726L281.468 201.242C280.242 199.795 278.768 198.533 277.077 197.515C276.699 197.287 276.208 197.409 275.981 197.786C275.753 198.164 275.875 198.655 276.253 198.882C280.003 201.141 282.583 204.715 283.56 208.833L282.444 208.387C282.038 208.225 281.57 208.422 281.406 208.832C281.242 209.242 281.442 209.706 281.851 209.87L283.885 210.684C283.957 211.305 283.994 211.935 283.994 212.572C283.994 214.375 283.694 216.109 283.141 217.727L282.345 216.832C282.052 216.503 281.547 216.474 281.218 216.766C280.888 217.059 280.859 217.564 281.152 217.894L282.471 219.377C281.354 221.739 279.674 223.784 277.607 225.34C279.11 223.338 280.002 220.852 280.002 218.162C280.002 216.415 279.626 214.754 278.951 213.256L278.957 213.24L279.706 211.144C279.854 210.729 279.638 210.272 279.222 210.123C278.807 209.975 278.35 210.192 278.202 210.607L277.914 211.412C275.755 208.258 272.127 206.184 268.024 206.184C267.583 206.184 267.226 206.542 267.226 206.983C267.226 207.424 267.583 207.781 268.024 207.781C268.428 207.781 268.826 207.804 269.218 207.849L267.525 210.211C267.268 210.569 267.351 211.068 267.709 211.325C267.85 211.426 268.013 211.474 268.173 211.474C268.422 211.474 268.667 211.358 268.823 211.141L270.933 208.196C275.246 209.457 278.405 213.447 278.405 218.162C278.405 220.287 277.763 222.264 276.663 223.912L275.97 222.9C275.72 222.537 275.223 222.443 274.859 222.693C274.495 222.943 274.403 223.439 274.652 223.803L275.626 225.224C274.659 226.264 273.481 227.106 272.162 227.682C269.325 225.778 267.232 223.351 265.894 220.422L267.069 218.836C267.331 218.482 267.257 217.982 266.903 217.719C266.547 217.458 266.048 217.532 265.785 217.886L265.204 218.671C264.538 216.682 264.18 214.493 264.132 212.107C264.026 206.82 265.566 202.507 265.581 202.464C265.731 202.05 265.517 201.592 265.102 201.441C264.689 201.293 264.231 201.505 264.08 201.919C264.058 201.979 263.33 204.042 262.892 207.099L261.274 204.969C261.008 204.618 260.507 204.549 260.155 204.817C259.804 205.083 259.736 205.584 260.003 205.935L262.531 209.262C262.566 209.308 262.605 209.349 262.646 209.385C262.331 213.776 262.855 219.385 266.245 224.161L265.878 224.231C265.445 224.314 265.161 224.732 265.244 225.165C265.317 225.548 265.651 225.814 266.027 225.814C266.076 225.814 266.127 225.809 266.178 225.8L267.356 225.575C268.189 226.534 269.156 227.447 270.276 228.296C269.579 228.451 268.855 228.535 268.113 228.542C268.084 228.542 268.054 228.542 268.024 228.542C267.995 228.542 267.965 228.542 267.935 228.542C264.534 228.513 261.518 226.841 259.645 224.282L260.476 223.186C260.743 222.834 260.673 222.333 260.322 222.067C259.969 221.799 259.47 221.869 259.203 222.22L258.749 222.82C258.042 221.418 257.644 219.835 257.644 218.162C257.644 216.026 258.287 213.975 259.504 212.231C259.756 211.869 259.668 211.371 259.306 211.119C258.943 210.865 258.446 210.955 258.194 211.317C257.823 211.848 257.498 212.405 257.221 212.981L256.975 212.722C256.673 212.401 256.168 212.389 255.847 212.691C255.527 212.994 255.513 213.5 255.817 213.82L256.577 214.623C256.227 215.758 256.047 216.948 256.047 218.162C256.047 220.852 256.939 223.339 258.442 225.341C255.159 222.871 252.855 219.166 252.227 214.922L254.283 212.262C254.552 211.913 254.488 211.411 254.139 211.141C253.79 210.87 253.287 210.937 253.019 211.285L252.054 212.534C252.073 204.654 257.951 197.878 265.742 196.764C266.178 196.702 266.482 196.297 266.419 195.861C266.357 195.424 265.952 195.117 265.516 195.183C260.592 195.887 256.363 198.647 253.651 202.51V200.595C253.651 200.154 253.294 199.796 252.853 199.796C252.411 199.796 252.054 200.154 252.054 200.595V205.289C251.028 207.523 250.457 209.994 250.457 212.572C250.457 213.311 250.503 214.039 250.592 214.754C250.594 214.786 250.598 214.818 250.604 214.85C251.04 218.199 252.422 221.255 254.473 223.739C253.031 222.57 251.742 221.219 250.641 219.722C250.592 219.578 250.501 219.447 250.373 219.348C248.224 216.29 246.849 212.651 246.534 208.718L249.525 204.232C249.77 203.865 249.671 203.369 249.303 203.124C248.935 202.879 248.44 202.978 248.196 203.346L246.491 205.903C246.646 202.73 247.483 199.688 248.932 196.942L253.757 194.694C254.157 194.508 254.33 194.033 254.144 193.633C253.959 193.234 253.485 193.06 253.084 193.246L250.462 194.467C251.193 193.446 252.019 192.481 252.936 191.583C253.251 191.274 253.256 190.769 252.947 190.454C252.639 190.139 252.134 190.134 251.818 190.442C250.964 191.279 250.183 192.17 249.478 193.107L249.852 190.495C249.915 190.058 249.611 189.653 249.175 189.591C248.738 189.532 248.333 189.832 248.271 190.268L247.41 196.288C247.404 196.332 247.401 196.376 247.402 196.419C246.054 199.042 245.223 201.911 244.959 204.902L244.005 202.675C243.831 202.27 243.358 202.082 242.957 202.256C242.551 202.43 242.363 202.899 242.537 203.305L244.933 208.894C244.938 208.906 244.943 208.918 244.949 208.93C245.203 211.966 246.045 214.836 247.36 217.428L245.184 216.044C244.812 215.807 244.319 215.916 244.082 216.289C243.845 216.661 243.955 217.154 244.327 217.391L249.25 220.524C251.234 223.267 253.803 225.559 256.773 227.217L254.165 227.223C253.724 227.224 253.367 227.582 253.368 228.023C253.369 228.464 253.726 228.82 254.167 228.82H254.168L260.249 228.807C260.259 228.807 260.268 228.807 260.278 228.807Z" fill="#302EA7"/>
<path d="M268 230.139L268 229.889L268 229.889L268 230.139ZM260.278 228.807L260.362 228.571L260.317 228.555L260.269 228.557L260.278 228.807ZM268.048 230.139L268.047 229.889L268.047 229.889L268.048 230.139ZM275.771 228.807L275.78 228.557L275.732 228.555L275.687 228.571L275.771 228.807ZM275.799 228.807L275.8 228.557L275.8 228.557L275.799 228.807ZM281.88 228.82L281.88 229.07H281.88V228.82ZM282.68 228.023L282.43 228.023L282.43 228.023L282.68 228.023ZM281.883 227.223L281.883 227.473L281.883 227.473L281.883 227.223ZM279.275 227.217L279.153 226.999L278.318 227.465L279.275 227.467L279.275 227.217ZM286.799 220.523L286.665 220.312L286.624 220.338L286.596 220.377L286.799 220.523ZM291.722 217.391L291.856 217.602L291.856 217.602L291.722 217.391ZM291.966 216.289L291.755 216.423L291.756 216.423L291.966 216.289ZM290.864 216.044L290.73 215.833L290.73 215.833L290.864 216.044ZM288.688 217.428L288.465 217.315L288.052 218.129L288.823 217.639L288.688 217.428ZM291.1 208.931L290.875 208.821L290.854 208.863L290.85 208.91L291.1 208.931ZM291.116 208.894L290.886 208.796L290.886 208.796L291.116 208.894ZM293.512 203.305L293.282 203.206L293.282 203.206L293.512 203.305ZM293.092 202.256L292.993 202.486L292.994 202.486L293.092 202.256ZM292.044 202.675L292.274 202.774L292.274 202.774L292.044 202.675ZM291.09 204.902L290.841 204.924L291.32 205L291.09 204.902ZM288.647 196.394L288.397 196.396L288.397 196.455L288.424 196.508L288.647 196.394ZM288.639 196.288L288.886 196.253L288.886 196.253L288.639 196.288ZM287.778 190.268L287.53 190.304L287.53 190.304L287.778 190.268ZM286.874 189.591L286.909 189.839L286.91 189.839L286.874 189.591ZM286.197 190.495L285.949 190.53L285.949 190.53L286.197 190.495ZM286.565 193.072L286.366 193.222L286.813 193.037L286.565 193.072ZM279.957 187.134L279.828 187.348L279.828 187.348L279.957 187.134ZM278.862 187.406L279.076 187.535L279.076 187.534L278.862 187.406ZM279.134 188.502L279.263 188.288L279.263 188.288L279.134 188.502ZM285.616 194.481L285.51 194.707L286.37 195.108L285.82 194.336L285.616 194.481ZM282.965 193.246L283.071 193.02L283.07 193.019L282.965 193.246ZM281.905 193.633L282.131 193.739L282.131 193.739L281.905 193.633ZM282.291 194.694L282.186 194.921L282.186 194.921L282.291 194.694ZM287.134 196.95L287.355 196.834L287.316 196.759L287.239 196.723L287.134 196.95ZM289.558 205.903L289.35 206.042L289.851 206.794L289.807 205.891L289.558 205.903ZM287.853 203.346L287.645 203.484L287.645 203.484L287.853 203.346ZM286.745 203.124L286.884 203.332L286.884 203.332L286.745 203.124ZM286.524 204.232L286.732 204.093L286.732 204.093L286.524 204.232ZM289.515 208.717L289.764 208.737L289.771 208.651L289.723 208.579L289.515 208.717ZM285.676 219.348L285.828 219.546L285.859 219.523L285.881 219.492L285.676 219.348ZM285.407 219.723L285.608 219.871L285.631 219.84L285.643 219.804L285.407 219.723ZM281.575 223.74L281.382 223.58L281.732 223.934L281.575 223.74ZM282.899 203.191L282.65 203.169L282.643 203.253L282.688 203.324L282.899 203.191ZM283.192 199.866L282.943 199.844L282.943 199.844L283.192 199.866ZM282.467 199.001L282.489 198.752L282.486 198.751L282.467 199.001ZM281.602 199.726L281.353 199.704L281.353 199.704L281.602 199.726ZM281.468 201.242L281.277 201.403L281.664 201.86L281.717 201.263L281.468 201.242ZM277.077 197.515L277.206 197.3L277.206 197.3L277.077 197.515ZM275.981 197.786L276.195 197.915L276.195 197.915L275.981 197.786ZM276.253 198.882L276.382 198.668L276.382 198.668L276.253 198.882ZM283.56 208.833L283.467 209.066L283.914 209.244L283.803 208.776L283.56 208.833ZM282.444 208.387L282.351 208.619L282.351 208.619L282.444 208.387ZM281.406 208.832L281.174 208.739L281.174 208.739L281.406 208.832ZM281.851 209.87L281.758 210.102L281.758 210.102L281.851 209.87ZM283.885 210.684L284.134 210.655L284.116 210.507L283.978 210.452L283.885 210.684ZM283.141 217.727L282.954 217.893L283.238 218.214L283.377 217.808L283.141 217.727ZM282.345 216.832L282.532 216.666L282.532 216.666L282.345 216.832ZM281.218 216.766L281.052 216.579L281.052 216.579L281.218 216.766ZM281.152 217.894L281.339 217.728L281.339 217.728L281.152 217.894ZM282.471 219.377L282.697 219.484L282.767 219.335L282.658 219.211L282.471 219.377ZM277.607 225.34L277.407 225.19L277.757 225.54L277.607 225.34ZM278.951 213.256L278.716 213.17L278.681 213.266L278.723 213.359L278.951 213.256ZM278.957 213.24L279.192 213.326L279.192 213.324L278.957 213.24ZM279.706 211.144L279.47 211.06L279.47 211.06L279.706 211.144ZM279.222 210.123L279.138 210.359L279.138 210.359L279.222 210.123ZM278.202 210.607L278.438 210.691L278.438 210.69L278.202 210.607ZM277.914 211.412L277.708 211.553L277.985 211.958L278.15 211.496L277.914 211.412ZM269.218 207.849L269.421 207.995L269.668 207.65L269.246 207.601L269.218 207.849ZM267.525 210.211L267.728 210.356L267.729 210.356L267.525 210.211ZM267.709 211.325L267.563 211.528L267.563 211.528L267.709 211.325ZM268.823 211.141L268.62 210.995L268.62 210.995L268.823 211.141ZM270.933 208.196L271.004 207.956L270.833 207.906L270.73 208.05L270.933 208.196ZM276.663 223.912L276.457 224.053L276.666 224.358L276.871 224.05L276.663 223.912ZM275.97 222.9L276.176 222.759L276.176 222.759L275.97 222.9ZM274.859 222.693L275 222.899L275.001 222.899L274.859 222.693ZM274.652 223.803L274.445 223.944L274.446 223.945L274.652 223.803ZM275.626 225.224L275.809 225.394L275.945 225.247L275.832 225.082L275.626 225.224ZM272.162 227.682L272.023 227.889L272.136 227.966L272.262 227.911L272.162 227.682ZM265.894 220.422L265.693 220.273L265.605 220.392L265.667 220.526L265.894 220.422ZM267.069 218.836L267.27 218.985L267.27 218.985L267.069 218.836ZM266.903 217.719L267.052 217.519L267.051 217.518L266.903 217.719ZM265.785 217.886L265.585 217.737L265.585 217.737L265.785 217.886ZM265.204 218.671L264.967 218.75L265.119 219.205L265.405 218.819L265.204 218.671ZM264.132 212.107L264.382 212.102L264.382 212.102L264.132 212.107ZM265.581 202.464L265.816 202.549L265.816 202.549L265.581 202.464ZM265.102 201.441L265.188 201.206L265.187 201.206L265.102 201.441ZM264.08 201.919L264.315 202.004L264.315 202.004L264.08 201.919ZM262.892 207.099L262.693 207.25L263.055 207.726L263.14 207.134L262.892 207.099ZM261.274 204.969L261.074 205.12L261.075 205.12L261.274 204.969ZM260.155 204.817L260.004 204.618L260.003 204.618L260.155 204.817ZM260.003 205.935L259.804 206.087L259.804 206.087L260.003 205.935ZM262.531 209.262L262.731 209.111L262.731 209.111L262.531 209.262ZM262.646 209.385L262.896 209.402L262.905 209.277L262.81 209.195L262.646 209.385ZM266.245 224.161L266.291 224.407L266.674 224.334L266.448 224.017L266.245 224.161ZM265.878 224.231L265.831 223.985L265.831 223.985L265.878 224.231ZM265.244 225.165L264.998 225.212L264.998 225.212L265.244 225.165ZM266.178 225.8L266.223 226.046L266.224 226.045L266.178 225.8ZM267.356 225.575L267.545 225.411L267.451 225.303L267.31 225.33L267.356 225.575ZM270.276 228.296L270.33 228.54L270.857 228.423L270.427 228.097L270.276 228.296ZM268.113 228.542L268.114 228.792L268.115 228.792L268.113 228.542ZM267.935 228.542L267.933 228.792L267.934 228.792L267.935 228.542ZM259.645 224.282L259.445 224.131L259.333 224.279L259.443 224.429L259.645 224.282ZM260.476 223.186L260.277 223.035L260.277 223.035L260.476 223.186ZM260.322 222.067L260.474 221.868L260.473 221.867L260.322 222.067ZM259.203 222.22L259.004 222.069L259.004 222.069L259.203 222.22ZM258.749 222.82L258.526 222.932L258.706 223.29L258.948 222.971L258.749 222.82ZM259.504 212.231L259.709 212.374L259.71 212.373L259.504 212.231ZM259.306 211.119L259.45 210.914L259.449 210.914L259.306 211.119ZM258.194 211.317L258.399 211.46L258.4 211.459L258.194 211.317ZM257.221 212.981L257.04 213.153L257.289 213.417L257.447 213.09L257.221 212.981ZM256.975 212.722L256.794 212.893L256.794 212.894L256.975 212.722ZM255.847 212.691L255.676 212.509L255.675 212.509L255.847 212.691ZM255.817 213.82L255.998 213.648L255.998 213.648L255.817 213.82ZM256.577 214.623L256.816 214.696L256.859 214.557L256.759 214.451L256.577 214.623ZM258.442 225.341L258.292 225.54L258.642 225.19L258.442 225.341ZM252.227 214.922L252.029 214.77L251.964 214.854L251.979 214.959L252.227 214.922ZM254.283 212.262L254.085 212.109L254.085 212.109L254.283 212.262ZM254.139 211.141L253.986 211.339L253.986 211.339L254.139 211.141ZM253.019 211.285L253.217 211.438L253.218 211.438L253.019 211.285ZM252.054 212.534L251.804 212.534L251.803 213.269L252.252 212.687L252.054 212.534ZM265.742 196.764L265.706 196.516L265.706 196.516L265.742 196.764ZM266.419 195.861L266.667 195.825L266.667 195.825L266.419 195.861ZM265.516 195.183L265.551 195.431L265.553 195.431L265.516 195.183ZM253.651 202.51H253.401V203.302L253.856 202.654L253.651 202.51ZM252.054 205.289L252.281 205.394L252.304 205.344V205.289H252.054ZM250.592 214.754L250.841 214.737L250.841 214.73L250.84 214.723L250.592 214.754ZM250.604 214.85L250.852 214.818L250.851 214.811L250.85 214.804L250.604 214.85ZM254.473 223.739L254.316 223.933L254.666 223.58L254.473 223.739ZM250.641 219.722L250.405 219.803L250.417 219.839L250.44 219.87L250.641 219.722ZM250.373 219.348L250.168 219.492L250.19 219.524L250.221 219.547L250.373 219.348ZM246.534 208.718L246.326 208.579L246.278 208.651L246.285 208.737L246.534 208.718ZM249.525 204.232L249.317 204.093L249.317 204.093L249.525 204.232ZM249.303 203.124L249.442 202.916L249.442 202.916L249.303 203.124ZM248.196 203.346L248.404 203.484L248.404 203.484L248.196 203.346ZM246.491 205.903L246.241 205.891L246.197 206.794L246.699 206.042L246.491 205.903ZM248.932 196.942L248.826 196.715L248.75 196.751L248.711 196.825L248.932 196.942ZM253.757 194.694L253.863 194.921L253.863 194.921L253.757 194.694ZM254.144 193.633L253.917 193.738L253.917 193.739L254.144 193.633ZM253.084 193.246L252.979 193.019L252.978 193.02L253.084 193.246ZM250.462 194.467L250.258 194.322L249.704 195.096L250.567 194.694L250.462 194.467ZM252.936 191.583L253.111 191.762L253.111 191.762L252.936 191.583ZM252.947 190.454L252.768 190.629L252.769 190.629L252.947 190.454ZM251.818 190.442L251.644 190.263L251.643 190.264L251.818 190.442ZM249.478 193.107L249.231 193.071L249.678 193.257L249.478 193.107ZM249.852 190.495L250.1 190.53L250.1 190.53L249.852 190.495ZM249.175 189.591L249.21 189.344L249.208 189.343L249.175 189.591ZM248.271 190.268L248.023 190.233L248.023 190.233L248.271 190.268ZM247.41 196.288L247.162 196.253L247.162 196.253L247.41 196.288ZM247.402 196.419L247.624 196.533L247.653 196.477L247.652 196.413L247.402 196.419ZM244.959 204.902L244.729 205.001L245.208 204.924L244.959 204.902ZM244.005 202.675L243.775 202.774L243.775 202.774L244.005 202.675ZM242.957 202.256L243.055 202.486L243.056 202.486L242.957 202.256ZM242.537 203.305L242.767 203.206L242.767 203.206L242.537 203.305ZM244.933 208.894L245.162 208.796L245.162 208.796L244.933 208.894ZM244.949 208.93L245.198 208.909L245.194 208.863L245.174 208.821L244.949 208.93ZM247.36 217.428L247.226 217.639L247.997 218.129L247.583 217.315L247.36 217.428ZM245.184 216.044L245.319 215.833L245.318 215.832L245.184 216.044ZM244.082 216.289L244.293 216.423L244.293 216.423L244.082 216.289ZM244.327 217.391L244.461 217.18L244.461 217.18L244.327 217.391ZM249.25 220.524L249.452 220.377L249.424 220.338L249.384 220.313L249.25 220.524ZM256.773 227.217L256.774 227.467L257.73 227.465L256.895 226.999L256.773 227.217ZM254.165 227.223L254.166 227.473L254.166 227.473L254.165 227.223ZM253.368 228.023L253.118 228.024L253.118 228.024L253.368 228.023ZM254.168 228.82V229.07L254.169 229.07L254.168 228.82ZM260.249 228.807L260.249 228.557L260.248 228.557L260.249 228.807ZM268 230.139L268 229.889C265.323 229.886 262.751 229.422 260.362 228.571L260.278 228.807L260.194 229.042C262.636 229.912 265.264 230.386 268 230.389L268 230.139ZM268 230.139L268 230.389C268.008 230.389 268.016 230.389 268.024 230.389V230.139V229.889C268.016 229.889 268.008 229.889 268 229.889L268 230.139ZM268.024 230.139V230.389C268.032 230.389 268.04 230.389 268.048 230.389L268.048 230.139L268.047 229.889C268.04 229.889 268.032 229.889 268.024 229.889V230.139ZM275.771 228.807L275.687 228.571C273.297 229.422 270.725 229.886 268.047 229.889L268.048 230.139L268.048 230.389C270.784 230.386 273.412 229.912 275.854 229.042L275.771 228.807ZM275.771 228.807L275.761 229.056C275.774 229.057 275.786 229.057 275.799 229.057L275.799 228.807L275.8 228.557C275.793 228.557 275.786 228.557 275.78 228.557L275.771 228.807ZM275.799 228.807L275.799 229.057L281.88 229.07L281.88 228.82L281.881 228.57L275.8 228.557L275.799 228.807ZM281.88 228.82V229.07H281.882V228.82V228.57H281.88V228.82ZM281.882 228.82V229.07C282.46 229.07 282.929 228.602 282.93 228.024L282.68 228.023L282.43 228.023C282.43 228.325 282.184 228.57 281.882 228.57V228.82ZM282.68 228.023L282.93 228.024C282.931 227.445 282.463 226.974 281.884 226.973L281.883 227.223L281.883 227.473C282.186 227.474 282.431 227.719 282.43 228.023L282.68 228.023ZM281.883 227.223L281.884 226.973L279.276 226.967L279.275 227.217L279.275 227.467L281.883 227.473L281.883 227.223ZM286.799 220.523L286.596 220.377C284.634 223.09 282.092 225.359 279.153 226.999L279.275 227.217L279.397 227.436C282.399 225.76 284.996 223.442 287.002 220.67L286.799 220.523ZM291.722 217.391L291.587 217.18L286.665 220.312L286.799 220.523L286.933 220.734L291.856 217.602L291.722 217.391ZM291.966 216.289L291.756 216.423C291.918 216.679 291.843 217.018 291.587 217.18L291.722 217.391L291.856 217.602C292.344 217.291 292.489 216.643 292.177 216.154L291.966 216.289ZM290.864 216.044L290.998 216.255C291.255 216.091 291.593 216.167 291.755 216.423L291.966 216.289L292.178 216.155C291.867 215.666 291.22 215.521 290.73 215.833L290.864 216.044ZM288.688 217.428L288.823 217.639L290.998 216.255L290.864 216.044L290.73 215.833L288.554 217.217L288.688 217.428ZM291.1 208.931L290.85 208.91C290.599 211.912 289.766 214.751 288.465 217.315L288.688 217.428L288.911 217.541C290.241 214.921 291.092 212.02 291.349 208.952L291.1 208.931ZM291.116 208.894L290.886 208.796C290.883 208.804 290.879 208.813 290.875 208.821L291.1 208.931L291.324 209.041C291.332 209.025 291.339 209.009 291.346 208.993L291.116 208.894ZM293.512 203.305L293.282 203.206L290.886 208.796L291.116 208.894L291.346 208.993L293.742 203.403L293.512 203.305ZM293.092 202.256L292.994 202.486C293.272 202.605 293.401 202.928 293.282 203.206L293.512 203.305L293.742 203.403C293.97 202.871 293.723 202.254 293.191 202.027L293.092 202.256ZM292.044 202.675L292.274 202.774C292.393 202.496 292.718 202.367 292.993 202.486L293.092 202.256L293.191 202.027C292.663 201.799 292.042 202.045 291.814 202.577L292.044 202.675ZM291.09 204.902L291.32 205L292.274 202.774L292.044 202.675L291.814 202.577L290.86 204.803L291.09 204.902ZM288.647 196.394L288.424 196.508C289.749 199.093 290.579 201.94 290.841 204.924L291.09 204.902L291.339 204.88C291.071 201.832 290.224 198.922 288.869 196.28L288.647 196.394ZM288.647 196.394L288.897 196.392C288.896 196.346 288.893 196.299 288.886 196.253L288.639 196.288L288.391 196.323C288.395 196.348 288.397 196.372 288.397 196.396L288.647 196.394ZM288.639 196.288L288.886 196.253L288.025 190.233L287.778 190.268L287.53 190.304L288.391 196.324L288.639 196.288ZM287.778 190.268L288.025 190.233C287.944 189.66 287.413 189.261 286.839 189.344L286.874 189.591L286.91 189.839C287.21 189.795 287.488 190.004 287.53 190.304L287.778 190.268ZM286.874 189.591L286.839 189.344C286.265 189.426 285.867 189.956 285.949 190.53L286.197 190.495L286.444 190.459C286.401 190.159 286.609 189.881 286.909 189.839L286.874 189.591ZM286.197 190.495L285.949 190.53L286.318 193.107L286.565 193.072L286.813 193.037L286.444 190.459L286.197 190.495ZM279.957 187.134L279.828 187.348C282.421 188.91 284.623 190.909 286.366 193.222L286.565 193.072L286.765 192.922C284.984 190.557 282.734 188.514 280.086 186.92L279.957 187.134ZM278.862 187.406L279.076 187.534C279.232 187.275 279.57 187.192 279.828 187.348L279.957 187.134L280.087 186.92C279.592 186.621 278.946 186.781 278.647 187.277L278.862 187.406ZM279.134 188.502L279.263 188.288C279.003 188.131 278.919 187.794 279.076 187.535L278.862 187.406L278.648 187.277C278.349 187.773 278.508 188.417 279.005 188.716L279.134 188.502ZM285.616 194.481L285.82 194.336C284.11 191.939 281.898 189.875 279.263 188.288L279.134 188.502L279.005 188.716C281.581 190.268 283.743 192.285 285.412 194.626L285.616 194.481ZM285.616 194.481L285.722 194.254L283.071 193.02L282.965 193.246L282.86 193.473L285.51 194.707L285.616 194.481ZM282.965 193.246L283.07 193.019C282.543 192.776 281.922 193.004 281.678 193.528L281.905 193.633L282.131 193.739C282.259 193.465 282.583 193.345 282.86 193.473L282.965 193.246ZM281.905 193.633L281.678 193.528C281.433 194.053 281.661 194.676 282.186 194.921L282.291 194.694L282.397 194.468C282.122 194.34 282.003 194.014 282.131 193.739L281.905 193.633ZM282.291 194.694L282.186 194.921L287.028 197.176L287.134 196.95L287.239 196.723L282.397 194.468L282.291 194.694ZM289.558 205.903L289.807 205.891C289.651 202.667 288.801 199.591 287.355 196.834L287.134 196.95L286.913 197.066C288.325 199.758 289.155 202.764 289.308 205.915L289.558 205.903ZM287.853 203.346L287.645 203.484L289.35 206.042L289.558 205.903L289.766 205.764L288.061 203.207L287.853 203.346ZM286.745 203.124L286.884 203.332C287.137 203.164 287.477 203.232 287.645 203.484L287.853 203.346L288.061 203.207C287.739 202.725 287.089 202.595 286.607 202.916L286.745 203.124ZM286.524 204.232L286.732 204.093C286.564 203.841 286.632 203.5 286.884 203.332L286.745 203.124L286.607 202.916C286.125 203.237 285.995 203.889 286.316 204.37L286.524 204.232ZM289.515 208.717L289.723 208.579L286.732 204.093L286.524 204.232L286.316 204.37L289.307 208.856L289.515 208.717ZM285.676 219.348L285.881 219.492C288.054 216.398 289.445 212.717 289.764 208.737L289.515 208.717L289.265 208.698C288.954 212.585 287.596 216.181 285.472 219.204L285.676 219.348ZM285.407 219.723L285.643 219.804C285.678 219.704 285.74 219.614 285.828 219.546L285.676 219.348L285.524 219.149C285.355 219.279 285.235 219.452 285.17 219.642L285.407 219.723ZM281.575 223.74L281.732 223.934C283.191 222.752 284.495 221.386 285.608 219.871L285.407 219.723L285.205 219.575C284.118 221.055 282.843 222.39 281.417 223.545L281.575 223.74ZM281.575 223.74L281.768 223.899C284.311 220.818 285.841 216.87 285.841 212.572H285.591H285.341C285.341 216.749 283.855 220.586 281.382 223.58L281.575 223.74ZM285.591 212.572H285.841C285.841 209.122 284.874 205.848 283.11 203.057L282.899 203.191L282.688 203.324C284.401 206.035 285.341 209.216 285.341 212.572H285.591ZM282.899 203.191L283.148 203.213L283.442 199.888L283.192 199.866L282.943 199.844L282.65 203.169L282.899 203.191ZM283.192 199.866L283.441 199.888C283.493 199.311 283.066 198.802 282.489 198.752L282.467 199.001L282.445 199.25C282.747 199.276 282.97 199.543 282.943 199.844L283.192 199.866ZM282.467 199.001L282.486 198.751C281.904 198.708 281.404 199.127 281.353 199.704L281.602 199.726L281.851 199.748C281.877 199.448 282.134 199.227 282.449 199.25L282.467 199.001ZM281.602 199.726L281.353 199.704L281.219 201.22L281.468 201.242L281.717 201.263L281.851 199.748L281.602 199.726ZM281.468 201.242L281.659 201.08C280.415 199.613 278.92 198.333 277.206 197.3L277.077 197.515L276.948 197.729C278.615 198.733 280.069 199.977 281.277 201.403L281.468 201.242ZM277.077 197.515L277.206 197.3C276.71 197.002 276.065 197.161 275.767 197.658L275.981 197.786L276.195 197.915C276.351 197.656 276.688 197.572 276.948 197.729L277.077 197.515ZM275.981 197.786L275.767 197.657C275.468 198.153 275.628 198.798 276.124 199.097L276.253 198.882L276.382 198.668C276.122 198.512 276.039 198.175 276.195 197.915L275.981 197.786ZM276.253 198.882L276.124 199.096C279.816 201.321 282.355 204.838 283.316 208.891L283.56 208.833L283.803 208.776C282.811 204.592 280.189 200.962 276.382 198.668L276.253 198.882ZM283.56 208.833L283.653 208.601L282.537 208.155L282.444 208.387L282.351 208.619L283.467 209.066L283.56 208.833ZM282.444 208.387L282.537 208.155C282.004 207.942 281.389 208.2 281.174 208.739L281.406 208.832L281.638 208.925C281.75 208.644 282.073 208.508 282.351 208.619L282.444 208.387ZM281.406 208.832L281.174 208.739C280.959 209.277 281.221 209.887 281.758 210.102L281.851 209.87L281.944 209.638C281.663 209.525 281.526 209.206 281.638 208.925L281.406 208.832ZM281.851 209.87L281.758 210.102L283.792 210.916L283.885 210.684L283.978 210.452L281.944 209.638L281.851 209.87ZM283.885 210.684L283.637 210.713C283.708 211.324 283.744 211.945 283.744 212.572H283.994H284.244C284.244 211.925 284.207 211.286 284.134 210.655L283.885 210.684ZM283.994 212.572H283.744C283.744 214.347 283.448 216.054 282.904 217.646L283.141 217.727L283.377 217.808C283.939 216.165 284.244 214.403 284.244 212.572H283.994ZM283.141 217.727L283.327 217.561L282.532 216.666L282.345 216.832L282.158 216.998L282.954 217.893L283.141 217.727ZM282.345 216.832L282.532 216.666C282.147 216.234 281.484 216.195 281.052 216.579L281.218 216.766L281.384 216.953C281.61 216.752 281.957 216.772 282.158 216.999L282.345 216.832ZM281.218 216.766L281.052 216.579C280.619 216.964 280.58 217.627 280.965 218.06L281.152 217.894L281.339 217.728C281.137 217.501 281.158 217.154 281.384 216.953L281.218 216.766ZM281.152 217.894L280.965 218.06L282.284 219.543L282.471 219.377L282.658 219.211L281.339 217.728L281.152 217.894ZM282.471 219.377L282.245 219.27C281.145 221.595 279.492 223.609 277.456 225.14L277.607 225.34L277.757 225.54C279.857 223.96 281.562 221.883 282.697 219.484L282.471 219.377ZM277.607 225.34L277.807 225.49C279.341 223.447 280.252 220.908 280.252 218.162H280.002H279.752C279.752 220.796 278.879 223.23 277.407 225.19L277.607 225.34ZM280.002 218.162H280.252C280.252 216.379 279.868 214.683 279.179 213.154L278.951 213.256L278.723 213.359C279.384 214.825 279.752 216.451 279.752 218.162H280.002ZM278.951 213.256L279.186 213.343L279.192 213.326L278.957 213.24L278.722 213.154L278.716 213.17L278.951 213.256ZM278.957 213.24L279.192 213.324L279.941 211.228L279.706 211.144L279.47 211.06L278.722 213.156L278.957 213.24ZM279.706 211.144L279.941 211.228C280.137 210.683 279.852 210.083 279.306 209.888L279.222 210.123L279.138 210.359C279.424 210.461 279.572 210.775 279.47 211.06L279.706 211.144ZM279.222 210.123L279.306 209.888C278.761 209.693 278.16 209.978 277.967 210.523L278.202 210.607L278.438 210.69C278.539 210.406 278.853 210.257 279.138 210.359L279.222 210.123ZM278.202 210.607L277.967 210.523L277.679 211.328L277.914 211.412L278.15 211.496L278.438 210.691L278.202 210.607ZM277.914 211.412L278.121 211.271C275.917 208.052 272.214 205.934 268.024 205.934V206.184V206.434C272.041 206.434 275.593 208.464 277.708 211.553L277.914 211.412ZM268.024 206.184V205.934C267.445 205.934 266.976 206.404 266.976 206.983H267.226H267.476C267.476 206.68 267.721 206.434 268.024 206.434V206.184ZM267.226 206.983H266.976C266.976 207.562 267.445 208.031 268.024 208.031V207.781V207.531C267.721 207.531 267.476 207.286 267.476 206.983H267.226ZM268.024 207.781V208.031C268.418 208.031 268.807 208.054 269.189 208.098L269.218 207.849L269.246 207.601C268.845 207.555 268.437 207.531 268.024 207.531V207.781ZM269.218 207.849L269.014 207.704L267.322 210.065L267.525 210.211L267.729 210.356L269.421 207.995L269.218 207.849ZM267.525 210.211L267.322 210.065C266.984 210.535 267.093 211.191 267.563 211.528L267.709 211.325L267.854 211.122C267.608 210.945 267.552 210.602 267.728 210.356L267.525 210.211ZM267.709 211.325L267.563 211.528C267.748 211.661 267.963 211.724 268.173 211.724V211.474V211.224C268.063 211.224 267.951 211.191 267.854 211.122L267.709 211.325ZM268.173 211.474V211.724C268.499 211.724 268.821 211.572 269.026 211.286L268.823 211.141L268.62 210.995C268.513 211.144 268.345 211.224 268.173 211.224V211.474ZM268.823 211.141L269.026 211.286L271.137 208.342L270.933 208.196L270.73 208.05L268.62 210.995L268.823 211.141ZM270.933 208.196L270.863 208.436C275.072 209.667 278.155 213.561 278.155 218.162H278.405H278.655C278.655 213.333 275.419 209.247 271.004 207.956L270.933 208.196ZM278.405 218.162H278.155C278.155 220.236 277.529 222.165 276.455 223.773L276.663 223.912L276.871 224.05C277.997 222.364 278.655 220.338 278.655 218.162H278.405ZM276.663 223.912L276.869 223.77L276.176 222.759L275.97 222.9L275.763 223.042L276.457 224.053L276.663 223.912ZM275.97 222.9L276.176 222.759C275.848 222.282 275.196 222.159 274.718 222.487L274.859 222.693L275.001 222.899C275.251 222.728 275.592 222.792 275.763 223.042L275.97 222.9ZM274.859 222.693L274.718 222.487C274.24 222.815 274.119 223.467 274.445 223.944L274.652 223.803L274.858 223.662C274.687 223.412 274.751 223.071 275 222.899L274.859 222.693ZM274.652 223.803L274.446 223.945L275.42 225.365L275.626 225.224L275.832 225.082L274.858 223.662L274.652 223.803ZM275.626 225.224L275.443 225.053C274.499 226.069 273.349 226.891 272.062 227.453L272.162 227.682L272.262 227.911C273.613 227.321 274.819 226.459 275.809 225.394L275.626 225.224ZM272.162 227.682L272.301 227.474C269.5 225.595 267.439 223.203 266.121 220.318L265.894 220.422L265.667 220.526C267.025 223.499 269.15 225.962 272.023 227.889L272.162 227.682ZM265.894 220.422L266.095 220.571L267.27 218.985L267.069 218.836L266.868 218.688L265.693 220.273L265.894 220.422ZM267.069 218.836L267.27 218.985C267.614 218.52 267.517 217.864 267.052 217.519L266.903 217.719L266.754 217.92C266.997 218.101 267.048 218.444 266.868 218.688L267.069 218.836ZM266.903 217.719L267.051 217.518C266.585 217.175 265.93 217.272 265.585 217.737L265.785 217.886L265.986 218.035C266.167 217.792 266.51 217.74 266.755 217.921L266.903 217.719ZM265.785 217.886L265.585 217.737L265.003 218.522L265.204 218.671L265.405 218.819L265.986 218.035L265.785 217.886ZM265.204 218.671L265.441 218.591C264.784 216.63 264.429 214.466 264.382 212.102L264.132 212.107L263.882 212.112C263.93 214.52 264.292 216.735 264.967 218.75L265.204 218.671ZM264.132 212.107L264.382 212.102C264.33 209.483 264.685 207.103 265.056 205.372C265.241 204.506 265.43 203.804 265.573 203.316C265.645 203.072 265.705 202.882 265.748 202.752C265.769 202.687 265.786 202.637 265.798 202.603C265.803 202.586 265.808 202.572 265.811 202.563C265.813 202.559 265.814 202.555 265.815 202.553C265.816 202.55 265.816 202.549 265.816 202.549L265.581 202.464L265.346 202.379C265.326 202.434 263.775 206.781 263.882 212.112L264.132 212.107ZM265.581 202.464L265.816 202.549C266.013 202.005 265.732 201.404 265.188 201.206L265.102 201.441L265.017 201.676C265.302 201.779 265.449 202.094 265.346 202.379L265.581 202.464ZM265.102 201.441L265.187 201.206C264.645 201.011 264.043 201.289 263.845 201.833L264.08 201.919L264.315 202.004C264.418 201.721 264.733 201.574 265.018 201.676L265.102 201.441ZM264.08 201.919L263.845 201.833C263.819 201.906 263.086 203.986 262.645 207.063L262.892 207.099L263.14 207.134C263.575 204.099 264.297 202.053 264.315 202.004L264.08 201.919ZM262.892 207.099L263.091 206.947L261.473 204.818L261.274 204.969L261.075 205.12L262.693 207.25L262.892 207.099ZM261.274 204.969L261.473 204.818C261.123 204.357 260.466 204.267 260.004 204.618L260.155 204.817L260.306 205.016C260.548 204.832 260.892 204.88 261.074 205.12L261.274 204.969ZM260.155 204.817L260.003 204.618C259.542 204.968 259.454 205.626 259.804 206.087L260.003 205.935L260.202 205.784C260.018 205.543 260.065 205.199 260.306 205.016L260.155 204.817ZM260.003 205.935L259.804 206.087L262.332 209.414L262.531 209.262L262.731 209.111L260.202 205.784L260.003 205.935ZM262.531 209.262L262.332 209.413C262.378 209.473 262.428 209.527 262.483 209.574L262.646 209.385L262.81 209.195C262.781 209.171 262.755 209.143 262.731 209.111L262.531 209.262ZM262.646 209.385L262.397 209.367C262.08 213.787 262.604 219.463 266.041 224.306L266.245 224.161L266.448 224.017C263.106 219.307 262.583 213.764 262.896 209.402L262.646 209.385ZM266.245 224.161L266.198 223.916L265.831 223.985L265.878 224.231L265.925 224.477L266.291 224.407L266.245 224.161ZM265.878 224.231L265.831 223.985C265.263 224.094 264.889 224.643 264.998 225.212L265.244 225.165L265.489 225.118C265.432 224.821 265.628 224.533 265.925 224.477L265.878 224.231ZM265.244 225.165L264.998 225.212C265.094 225.714 265.533 226.064 266.027 226.064V225.814V225.564C265.769 225.564 265.539 225.381 265.489 225.118L265.244 225.165ZM266.027 225.814V226.064C266.092 226.064 266.158 226.058 266.223 226.046L266.178 225.8L266.132 225.554C266.096 225.561 266.061 225.564 266.027 225.564V225.814ZM266.178 225.8L266.224 226.045L267.403 225.821L267.356 225.575L267.31 225.33L266.131 225.554L266.178 225.8ZM267.356 225.575L267.168 225.739C268.012 226.711 268.992 227.636 270.125 228.495L270.276 228.296L270.427 228.097C269.321 227.258 268.367 226.357 267.545 225.411L267.356 225.575ZM270.276 228.296L270.222 228.052C269.541 228.203 268.835 228.286 268.111 228.292L268.113 228.542L268.115 228.792C268.875 228.785 269.616 228.699 270.33 228.54L270.276 228.296ZM268.024 228.542V228.792C268.054 228.792 268.084 228.792 268.114 228.792L268.113 228.542L268.112 228.292C268.083 228.292 268.054 228.292 268.024 228.292V228.542ZM267.935 228.542L267.934 228.792C267.964 228.792 267.994 228.792 268.024 228.792V228.542V228.292C267.995 228.292 267.966 228.292 267.936 228.292L267.935 228.542ZM267.935 228.542L267.937 228.292C264.619 228.264 261.676 226.632 259.846 224.134L259.645 224.282L259.443 224.429C261.361 227.049 264.45 228.762 267.933 228.792L267.935 228.542ZM259.645 224.282L259.844 224.433L260.675 223.337L260.476 223.186L260.277 223.035L259.445 224.131L259.645 224.282ZM260.476 223.186L260.675 223.337C261.026 222.875 260.934 222.218 260.474 221.868L260.322 222.067L260.171 222.266C260.412 222.449 260.46 222.794 260.277 223.035L260.476 223.186ZM260.322 222.067L260.473 221.867C260.01 221.516 259.354 221.609 259.004 222.069L259.203 222.22L259.402 222.372C259.586 222.13 259.929 222.082 260.171 222.266L260.322 222.067ZM259.203 222.22L259.004 222.069L258.55 222.668L258.749 222.82L258.948 222.971L259.403 222.371L259.203 222.22ZM258.749 222.82L258.972 222.707C258.282 221.34 257.894 219.795 257.894 218.162H257.644H257.394C257.394 219.876 257.802 221.497 258.526 222.932L258.749 222.82ZM257.644 218.162H257.894C257.894 216.077 258.522 214.076 259.709 212.374L259.504 212.231L259.299 212.088C258.053 213.874 257.394 215.975 257.394 218.162H257.644ZM259.504 212.231L259.71 212.373C260.04 211.899 259.925 211.245 259.45 210.914L259.306 211.119L259.163 211.324C259.412 211.497 259.473 211.839 259.299 212.088L259.504 212.231ZM259.306 211.119L259.449 210.914C258.973 210.581 258.32 210.699 257.989 211.174L258.194 211.317L258.4 211.459C258.573 211.211 258.913 211.149 259.163 211.324L259.306 211.119ZM258.194 211.317L257.989 211.174C257.611 211.716 257.279 212.284 256.996 212.873L257.221 212.981L257.447 213.09C257.718 212.525 258.036 211.981 258.399 211.46L258.194 211.317ZM257.221 212.981L257.403 212.809L257.157 212.55L256.975 212.722L256.794 212.894L257.04 213.153L257.221 212.981ZM256.975 212.722L257.157 212.55C256.759 212.128 256.095 212.113 255.676 212.509L255.847 212.691L256.019 212.873C256.24 212.664 256.587 212.674 256.794 212.893L256.975 212.722ZM255.847 212.691L255.675 212.509C255.254 212.908 255.237 213.571 255.635 213.992L255.817 213.82L255.998 213.648C255.79 213.428 255.799 213.081 256.019 212.873L255.847 212.691ZM255.817 213.82L255.635 213.992L256.396 214.795L256.577 214.623L256.759 214.451L255.998 213.648L255.817 213.82ZM256.577 214.623L256.338 214.549C255.981 215.709 255.797 216.923 255.797 218.162H256.047H256.297C256.297 216.973 256.473 215.808 256.816 214.696L256.577 214.623ZM256.047 218.162H255.797C255.797 220.908 256.708 223.447 258.242 225.491L258.442 225.341L258.642 225.19C257.17 223.23 256.297 220.796 256.297 218.162H256.047ZM258.442 225.341L258.593 225.141C255.36 222.709 253.093 219.062 252.474 214.886L252.227 214.922L251.979 214.959C252.618 219.27 254.958 223.032 258.292 225.54L258.442 225.341ZM252.227 214.922L252.425 215.075L254.48 212.415L254.283 212.262L254.085 212.109L252.029 214.77L252.227 214.922ZM254.283 212.262L254.48 212.415C254.835 211.956 254.751 211.298 254.292 210.944L254.139 211.141L253.986 211.339C254.226 211.525 254.27 211.869 254.085 212.109L254.283 212.262ZM254.139 211.141L254.293 210.944C253.833 210.587 253.173 210.676 252.821 211.133L253.019 211.285L253.218 211.438C253.401 211.199 253.746 211.153 253.986 211.339L254.139 211.141ZM253.019 211.285L252.822 211.132L251.856 212.381L252.054 212.534L252.252 212.687L253.217 211.438L253.019 211.285ZM252.054 212.534L252.304 212.535C252.323 204.779 258.11 198.108 265.777 197.011L265.742 196.764L265.706 196.516C257.792 197.649 251.823 204.53 251.804 212.534L252.054 212.534ZM265.742 196.764L265.777 197.011C266.35 196.93 266.749 196.399 266.667 195.825L266.419 195.861L266.172 195.896C266.215 196.196 266.006 196.474 265.706 196.516L265.742 196.764ZM266.419 195.861L266.667 195.825C266.585 195.254 266.055 194.849 265.478 194.936L265.516 195.183L265.553 195.431C265.85 195.386 266.129 195.595 266.172 195.896L266.419 195.861ZM265.516 195.183L265.48 194.936C260.485 195.65 256.196 198.449 253.447 202.367L253.651 202.51L253.856 202.654C256.53 198.844 260.699 196.125 265.551 195.431L265.516 195.183ZM253.651 202.51H253.901V200.595H253.651H253.401V202.51H253.651ZM253.651 200.595H253.901C253.901 200.016 253.432 199.546 252.853 199.546V199.796V200.046C253.156 200.046 253.401 200.292 253.401 200.595H253.651ZM252.853 199.796V199.546C252.273 199.546 251.804 200.016 251.804 200.595H252.054H252.304C252.304 200.292 252.55 200.046 252.853 200.046V199.796ZM252.054 200.595H251.804V205.289H252.054H252.304V200.595H252.054ZM252.054 205.289L251.827 205.185C250.786 207.45 250.207 209.957 250.207 212.572H250.457H250.707C250.707 210.031 251.269 207.595 252.281 205.394L252.054 205.289ZM250.457 212.572H250.207C250.207 213.321 250.254 214.059 250.344 214.785L250.592 214.754L250.84 214.723C250.752 214.018 250.707 213.3 250.707 212.572H250.457ZM250.592 214.754L250.343 214.77C250.345 214.813 250.351 214.855 250.359 214.897L250.604 214.85L250.85 214.804C250.846 214.782 250.843 214.76 250.841 214.737L250.592 214.754ZM250.604 214.85L250.356 214.883C250.798 218.28 252.2 221.379 254.28 223.898L254.473 223.739L254.666 223.58C252.644 221.131 251.282 218.119 250.852 214.818L250.604 214.85ZM250.641 219.722L250.44 219.87C251.553 221.385 252.857 222.751 254.316 223.933L254.473 223.739L254.63 223.545C253.205 222.389 251.93 221.054 250.842 219.574L250.641 219.722ZM250.373 219.348L250.221 219.547C250.308 219.614 250.371 219.704 250.405 219.803L250.641 219.722L250.877 219.641C250.813 219.451 250.693 219.279 250.525 219.15L250.373 219.348ZM246.534 208.718L246.285 208.737C246.603 212.717 247.995 216.399 250.168 219.492L250.373 219.348L250.577 219.205C248.453 216.182 247.094 212.585 246.783 208.698L246.534 208.718ZM246.534 208.718L246.742 208.856L249.733 204.37L249.525 204.232L249.317 204.093L246.326 208.579L246.534 208.718ZM249.525 204.232L249.733 204.37C250.054 203.889 249.924 203.237 249.442 202.916L249.303 203.124L249.165 203.332C249.417 203.5 249.485 203.841 249.317 204.093L249.525 204.232ZM249.303 203.124L249.442 202.916C248.959 202.595 248.308 202.724 247.988 203.207L248.196 203.346L248.404 203.484C248.571 203.232 248.911 203.164 249.165 203.332L249.303 203.124ZM248.196 203.346L247.988 203.207L246.283 205.764L246.491 205.903L246.699 206.042L248.404 203.484L248.196 203.346ZM248.932 196.942L248.711 196.825C247.244 199.604 246.398 202.682 246.241 205.891L246.491 205.903L246.741 205.915C246.894 202.779 247.721 199.772 249.153 197.058L248.932 196.942ZM248.932 196.942L249.037 197.168L253.863 194.921L253.757 194.694L253.652 194.468L248.826 196.715L248.932 196.942ZM253.757 194.694L253.863 194.921C254.388 194.676 254.615 194.053 254.371 193.528L254.144 193.633L253.917 193.739C254.046 194.014 253.927 194.34 253.652 194.468L253.757 194.694ZM254.144 193.633L254.371 193.528C254.128 193.003 253.505 192.776 252.979 193.019L253.084 193.246L253.189 193.473C253.465 193.345 253.791 193.465 253.917 193.738L254.144 193.633ZM253.084 193.246L252.978 193.02L250.356 194.241L250.462 194.467L250.567 194.694L253.189 193.473L253.084 193.246ZM252.936 191.583L252.761 191.404C251.834 192.313 250.998 193.289 250.258 194.322L250.462 194.467L250.665 194.613C251.388 193.604 252.205 192.65 253.111 191.762L252.936 191.583ZM252.947 190.454L252.769 190.629C252.981 190.845 252.978 191.193 252.761 191.404L252.936 191.583L253.111 191.762C253.525 191.356 253.531 190.692 253.126 190.279L252.947 190.454ZM251.818 190.442L251.993 190.621C252.211 190.409 252.558 190.413 252.768 190.629L252.947 190.454L253.126 190.279C252.721 189.864 252.057 189.86 251.644 190.263L251.818 190.442ZM249.478 193.107L249.678 193.257C250.375 192.33 251.148 191.449 251.993 190.621L251.818 190.442L251.643 190.264C250.78 191.109 249.991 192.009 249.279 192.957L249.478 193.107ZM249.478 193.107L249.726 193.142L250.1 190.53L249.852 190.495L249.605 190.459L249.231 193.071L249.478 193.107ZM249.852 190.495L250.1 190.53C250.182 189.956 249.783 189.426 249.21 189.344L249.175 189.591L249.139 189.839C249.439 189.881 249.648 190.159 249.605 190.459L249.852 190.495ZM249.175 189.591L249.208 189.343C248.638 189.266 248.105 189.659 248.023 190.233L248.271 190.268L248.518 190.304C248.561 190.006 248.838 189.798 249.141 189.839L249.175 189.591ZM248.271 190.268L248.023 190.233L247.162 196.253L247.41 196.288L247.657 196.324L248.518 190.304L248.271 190.268ZM247.41 196.288L247.162 196.253C247.154 196.31 247.151 196.368 247.152 196.425L247.402 196.419L247.652 196.413C247.651 196.384 247.653 196.354 247.657 196.323L247.41 196.288ZM244.959 204.902L245.208 204.924C245.469 201.965 246.292 199.128 247.624 196.533L247.402 196.419L247.18 196.305C245.817 198.957 244.977 201.857 244.71 204.88L244.959 204.902ZM244.959 204.902L245.189 204.804L244.234 202.577L244.005 202.675L243.775 202.774L244.729 205.001L244.959 204.902ZM244.005 202.675L244.234 202.577C244.006 202.044 243.386 201.798 242.857 202.027L242.957 202.256L243.056 202.486C243.33 202.367 243.655 202.495 243.775 202.774L244.005 202.675ZM242.957 202.256L242.858 202.026C242.326 202.254 242.079 202.871 242.307 203.403L242.537 203.305L242.767 203.206C242.647 202.928 242.776 202.605 243.055 202.486L242.957 202.256ZM242.537 203.305L242.307 203.403L244.703 208.993L244.933 208.894L245.162 208.796L242.767 203.206L242.537 203.305ZM244.933 208.894L244.703 208.993C244.71 209.009 244.717 209.024 244.724 209.04L244.949 208.93L245.174 208.821C245.17 208.812 245.166 208.804 245.162 208.796L244.933 208.894ZM247.36 217.428L247.583 217.315C246.282 214.751 245.449 211.912 245.198 208.909L244.949 208.93L244.7 208.951C244.957 212.019 245.808 214.921 247.138 217.541L247.36 217.428ZM245.184 216.044L245.05 216.255L247.226 217.639L247.36 217.428L247.495 217.217L245.319 215.833L245.184 216.044ZM244.082 216.289L244.293 216.423C244.455 216.167 244.794 216.092 245.051 216.255L245.184 216.044L245.318 215.832C244.829 215.523 244.182 215.665 243.871 216.155L244.082 216.289ZM244.327 217.391L244.461 217.18C244.205 217.018 244.13 216.679 244.293 216.423L244.082 216.289L243.871 216.154C243.56 216.643 243.704 217.291 244.192 217.602L244.327 217.391ZM249.25 220.524L249.384 220.313L244.461 217.18L244.327 217.391L244.192 217.602L249.116 220.735L249.25 220.524ZM256.773 227.217L256.895 226.999C253.957 225.359 251.415 223.091 249.452 220.377L249.25 220.524L249.047 220.67C251.052 223.442 253.649 225.76 256.651 227.436L256.773 227.217ZM256.773 227.217L256.773 226.967L254.165 226.973L254.165 227.223L254.166 227.473L256.774 227.467L256.773 227.217ZM254.165 227.223L254.165 226.973C253.585 226.974 253.117 227.445 253.118 228.024L253.368 228.023L253.618 228.023C253.618 227.719 253.862 227.474 254.166 227.473L254.165 227.223ZM253.368 228.023L253.118 228.024C253.119 228.602 253.588 229.07 254.167 229.07V228.82V228.57C253.864 228.57 253.619 228.325 253.618 228.023L253.368 228.023ZM254.167 228.82V229.07H254.168V228.82V228.57H254.167V228.82ZM254.168 228.82L254.169 229.07L260.25 229.057L260.249 228.807L260.248 228.557L254.168 228.57L254.168 228.82ZM260.249 228.807L260.249 229.057C260.262 229.057 260.275 229.057 260.287 229.056L260.278 228.807L260.269 228.557C260.262 228.557 260.255 228.557 260.249 228.557L260.249 228.807Z" fill="black"/>
<path d="M309.87 9.92505C317.165 26.6043 309.558 46.0398 292.879 53.3355C276.2 60.6312 256.764 53.0243 249.469 36.345C242.173 19.6657 249.78 0.230197 266.459 -7.06547C283.138 -14.3611 302.574 -6.75422 309.87 9.92505Z" fill="url(#paint0_linear_205_2)"/>
<path d="M266.548 13.4977C267.671 16.0636 266.501 19.0538 263.935 20.1764C261.369 21.299 258.379 20.129 257.256 17.5631C256.133 14.9971 257.303 12.0069 259.869 10.8843C262.435 9.76168 265.425 10.9317 266.548 13.4977Z" fill="url(#paint1_linear_205_2)"/>
<path d="M297.519 0.0705298C298.164 0.818197 298.042 1.7959 297.248 2.2543C296.453 2.71269 295.286 2.47819 294.641 1.73052C293.997 0.982851 294.119 0.00514532 294.913 -0.453248C295.708 -0.911641 296.875 -0.677138 297.519 0.0705298Z" fill="url(#paint2_linear_205_2)"/>
<path d="M309.166 23.7618C310.169 24.1112 310.591 25.5196 310.108 26.9077C309.624 28.2958 308.419 29.1379 307.416 28.7886C306.412 28.4392 305.991 27.0308 306.474 25.6427C306.958 24.2546 308.163 23.4125 309.166 23.7618Z" fill="url(#paint3_linear_205_2)"/>
<path d="M291.079 42.0734C291.787 45.7614 288.814 49.4324 284.439 50.2727C280.063 51.1131 275.942 48.8046 275.233 45.1166C274.525 41.4287 277.498 37.7577 281.874 36.9174C286.249 36.077 290.371 38.3855 291.079 42.0734Z" fill="url(#paint4_linear_205_2)"/>
<path d="M245.565 27.9945C246.344 27.757 247.762 30.1447 248.731 33.3276C249.701 36.5105 249.854 39.2832 249.074 39.5206C248.295 39.7581 246.877 37.3704 245.908 34.1875C244.938 31.0046 244.785 28.2319 245.565 27.9945Z" fill="url(#paint5_linear_205_2)"/>
<path d="M246.589 27.6823C247.935 27.2725 249.811 29.5206 250.78 32.7035C251.75 35.8863 251.444 38.7987 250.099 39.2085C248.753 39.6182 246.877 37.3702 245.907 34.1873C244.938 31.0044 245.243 28.092 246.589 27.6823Z" fill="url(#paint6_linear_205_2)"/>
<path d="M245.443 29.7076C245.67 29.6385 246.405 31.3896 247.083 33.6188C247.762 35.848 248.128 37.7111 247.902 37.7802C247.675 37.8493 246.94 36.0982 246.262 33.869C245.583 31.6398 245.217 29.7767 245.443 29.7076Z" fill="#271262"/>
<path d="M273.368 54.9513C273.398 54.5196 276.118 54.2232 279.443 54.2892C282.768 54.3553 285.438 54.7588 285.408 55.1905C285.377 55.6222 282.657 55.9186 279.332 55.8526C276.008 55.7865 273.337 55.383 273.368 54.9513Z" fill="url(#paint7_linear_205_2)"/>
<path d="M273.408 54.3841C273.461 53.6391 276.199 53.0887 279.523 53.1548C282.848 53.2208 285.501 53.8783 285.448 54.6232C285.395 55.3682 282.657 55.9186 279.333 55.8525C276.008 55.7865 273.355 55.1291 273.408 54.3841Z" fill="url(#paint8_linear_205_2)"/>
<path d="M274.947 55.3089C274.956 55.1833 276.851 55.1189 279.179 55.1652C281.508 55.2114 283.389 55.3507 283.38 55.4764C283.371 55.602 281.476 55.6663 279.147 55.62C276.819 55.5738 274.938 55.4345 274.947 55.3089Z" fill="#2D1D81"/>
<path d="M307.618 41.6302C306.97 41.335 307.421 38.9515 308.625 36.3064C309.83 33.6613 311.332 31.7563 311.98 32.0514C312.628 32.3466 312.177 34.7301 310.972 37.3752C309.768 40.0203 308.266 41.9253 307.618 41.6302Z" fill="url(#paint9_linear_205_2)"/>
<path d="M306.766 41.2427C305.648 40.7335 305.718 38.1764 306.922 35.5313C308.127 32.8862 310.01 31.1547 311.128 31.664C312.246 32.1733 312.176 34.7304 310.972 37.3755C309.767 40.0206 307.884 41.752 306.766 41.2427Z" fill="url(#paint10_linear_205_2)"/>
<path d="M308.687 40.5782C308.498 40.4923 309.029 38.9209 309.873 37.0684C310.717 35.2158 311.554 33.7837 311.742 33.8695C311.931 33.9554 311.4 35.5268 310.556 37.3793C309.712 39.2319 308.875 40.6641 308.687 40.5782Z" fill="#1C113D"/>
<path d="M307.793 4.91996C307.426 5.16987 306.302 4.15947 305.282 2.66315C304.262 1.16683 303.733 -0.248775 304.099 -0.498692C304.466 -0.748609 305.59 0.261799 306.61 1.75812C307.63 3.25444 308.16 4.67004 307.793 4.91996Z" fill="url(#paint11_linear_205_2)"/>
<path d="M307.312 5.24817C306.679 5.67942 305.339 4.81604 304.319 3.31976C303.299 1.82348 302.985 0.26091 303.618 -0.170334C304.25 -0.601578 305.59 0.261804 306.61 1.75808C307.63 3.25436 307.944 4.81693 307.312 5.24817Z" fill="url(#paint12_linear_205_2)"/>
<path d="M307.578 4.01004C307.471 4.08276 306.806 3.29218 306.091 2.24424C305.377 1.1963 304.884 0.287834 304.991 0.21512C305.098 0.142405 305.763 0.93298 306.478 1.98092C307.192 3.02886 307.685 3.93733 307.578 4.01004Z" fill="#32187C"/>
<path d="M287.258 18.6999C287.258 20.4504 285.839 21.8695 284.089 21.8695C282.338 21.8695 280.919 20.4504 280.919 18.6999C280.919 16.9494 282.338 15.5304 284.089 15.5304C285.839 15.5304 287.258 16.9494 287.258 18.6999Z" fill="#2B1D53"/>
<path d="M259.874 41.8591C259.078 42.5447 257.507 42.0253 256.364 40.6991C255.221 39.3728 254.94 37.742 255.736 37.0565C256.532 36.371 258.103 36.8903 259.246 38.2166C260.388 39.5428 260.669 41.1736 259.874 41.8591Z" fill="#1C113D"/>
<path d="M303.428 37.2484C304.118 38.0398 303.609 39.6143 302.29 40.7652C300.971 41.916 299.342 42.2074 298.651 41.416C297.96 40.6246 298.47 39.0501 299.789 37.8993C301.108 36.7484 302.737 36.457 303.428 37.2484Z" fill="url(#paint13_linear_205_2)"/>
<path d="M53.7422 160.66C54.103 160.129 54.3962 157.54 54.5004 156.906C54.812 155.76 55.3947 148.516 55.3947 146.329C55.3947 145.174 55.5021 143.685 55.8748 142.959C56.5336 141.692 57.9792 139.088 59.1587 138.504C58.5031 138.544 56.3572 139.771 55.8748 140.217C55.3229 140.662 54.8113 141.412 54.4674 142.032C54.039 142.78 54.0055 143.605 53.8267 144.448C53.4509 146.217 53.4784 154.026 53.4784 155.609C53.4784 157.191 53.6597 160.633 53.7422 160.66Z" fill="white"/>
<path d="M27.9867 175.439C28.3955 174.177 28.1179 168.759 28.3955 166.538C28.5388 165.392 28.8347 164.22 29.2074 163.493C29.8662 162.226 32.1412 160.62 33.3207 160.035C32.665 160.076 30.5192 161.303 30.0368 161.749C28.6725 162.849 28.3292 163.738 27.9867 165.352C27.7975 166.244 27.7229 168.806 27.7228 170.388C27.7228 171.97 27.9042 175.412 27.9867 175.439Z" fill="white"/>
<path d="M83.4544 161.969C83.7019 159.84 83.5737 157.562 84.297 155.519C84.7518 154.253 86.3223 152.646 87.1365 152.062C86.6839 152.102 85.2026 153.329 84.8696 153.775C83.763 155.068 83.4544 156.575 83.4544 158.434C83.4544 160.016 83.3975 161.941 83.4544 161.969Z" fill="white"/>
</g>
<path d="M243.802 146.202C243.689 146.195 243.59 146.281 243.582 146.395C243.566 146.631 243.792 147.357 244.265 147.847C244.412 148 244.573 148.117 244.743 148.197C244.439 148.352 244.136 148.476 243.792 148.476C243.791 148.476 243.789 148.476 243.788 148.476C243.674 148.476 243.582 148.568 243.581 148.682C243.581 148.797 243.674 148.89 243.788 148.89H243.792C244.332 148.89 244.766 148.657 245.184 148.433C245.546 148.239 245.887 148.055 246.273 148.037C246.387 148.032 246.475 147.935 246.47 147.82C246.464 147.706 246.369 147.618 246.253 147.623C245.897 147.64 245.585 147.763 245.29 147.91C245.034 147.906 244.795 147.794 244.579 147.576C244.169 147.163 243.991 146.531 243.995 146.422C244.003 146.309 243.916 146.21 243.802 146.202Z" fill="#302EA7" stroke="black" stroke-width="0.2"/>
<path d="M244.714 149.226L244.497 149.442C244.417 149.523 244.417 149.654 244.497 149.735C244.538 149.775 244.591 149.796 244.644 149.796C244.697 149.796 244.75 149.775 244.79 149.735L245.006 149.519C245.087 149.438 245.087 149.307 245.006 149.226C244.926 149.145 244.795 149.145 244.714 149.226Z" fill="#302EA7" stroke="black" stroke-width="0.2"/>
<path d="M244.882 152.494C244.994 152.47 245.065 152.36 245.041 152.248C245.017 152.136 244.907 152.065 244.796 152.089C244.492 152.153 244.252 152.147 244.134 152.124C244.007 151.761 243.84 151.4 243.342 151.161C243.239 151.112 243.115 151.155 243.066 151.258C243.016 151.361 243.06 151.485 243.163 151.534C243.564 151.727 243.657 152.004 243.787 152.388C243.91 152.755 244.064 153.212 244.553 153.645C244.592 153.679 244.641 153.697 244.69 153.697C244.747 153.697 244.804 153.673 244.845 153.627C244.921 153.541 244.913 153.41 244.827 153.334C244.534 153.075 244.389 152.813 244.285 152.554C244.303 152.554 244.321 152.555 244.339 152.555C244.504 152.555 244.691 152.534 244.882 152.494Z" fill="#302EA7" stroke="black" stroke-width="0.2"/>
<path d="M247.275 151.788L247.059 152.004C246.978 152.085 246.978 152.216 247.059 152.297C247.1 152.337 247.153 152.358 247.206 152.358C247.259 152.358 247.312 152.337 247.352 152.297L247.568 152.081C247.649 152 247.649 151.869 247.568 151.788C247.487 151.707 247.356 151.707 247.275 151.788Z" fill="#302EA7" stroke="black" stroke-width="0.2"/>
<path d="M237.361 148.612C237.527 148.498 237.799 148.416 238.113 148.374C237.814 148.838 237.57 149.339 237.399 149.853C237.363 149.962 237.422 150.079 237.53 150.115C237.552 150.122 237.574 150.125 237.596 150.125C237.682 150.125 237.763 150.07 237.792 149.984C237.984 149.405 238.275 148.844 238.636 148.341C239.116 148.343 239.609 148.429 239.932 148.62C239.965 148.639 240.001 148.648 240.037 148.648C240.108 148.648 240.177 148.612 240.215 148.546C240.273 148.448 240.241 148.321 240.142 148.263C239.822 148.074 239.394 147.97 238.954 147.936C239.058 147.814 239.167 147.697 239.28 147.585C239.45 147.417 239.624 147.248 239.804 147.082C239.836 147.111 239.87 147.14 239.907 147.169C240.107 147.323 240.355 147.44 240.54 147.468C240.55 147.469 240.561 147.47 240.571 147.47C240.672 147.47 240.76 147.396 240.775 147.293C240.792 147.18 240.714 147.075 240.601 147.058C240.484 147.041 240.279 146.945 240.113 146.802C240.5 146.465 240.911 146.148 241.353 145.89C241.392 145.866 241.432 145.844 241.471 145.823C241.704 145.955 241.937 146.128 242.095 146.338C242.162 146.426 242.211 146.514 242.242 146.603C242.243 146.607 242.245 146.61 242.246 146.614C242.296 146.76 242.299 146.91 242.255 147.064C242.224 147.174 242.288 147.289 242.398 147.32C242.417 147.325 242.436 147.328 242.454 147.328C242.545 147.328 242.628 147.268 242.653 147.177C242.711 146.975 242.714 146.773 242.665 146.577C242.702 146.53 242.76 146.461 242.809 146.403C243.073 146.09 243.46 145.63 243.585 145.192C243.696 145.184 243.808 145.181 243.921 145.181C244.716 145.181 245.446 145.372 246.145 145.669C245.854 145.855 245.6 146.091 245.39 146.285L245.339 146.334C245.255 146.411 245.25 146.542 245.327 146.626C245.368 146.67 245.424 146.693 245.479 146.693C245.53 146.693 245.58 146.674 245.62 146.637L245.672 146.589C245.948 146.332 246.262 146.041 246.611 145.882C247.118 146.133 247.614 146.43 248.109 146.739C248.324 146.873 248.525 147.028 248.712 147.203C248.536 147.348 248.364 147.517 248.201 147.705C247.948 147.415 247.483 147.061 247.042 146.923C246.933 146.889 246.817 146.95 246.782 147.059C246.748 147.168 246.809 147.284 246.918 147.318C247.376 147.461 247.796 147.854 247.939 148.036C247.46 148.7 247.213 149.408 247.258 150.008C247.266 150.117 247.357 150.2 247.465 150.2C247.47 150.2 247.475 150.2 247.48 150.199C247.594 150.191 247.68 150.092 247.671 149.977C247.63 149.427 247.909 148.721 248.419 148.09C248.601 147.865 248.799 147.666 249 147.503C249.268 147.813 249.5 148.171 249.693 148.578C249.742 148.681 249.866 148.725 249.969 148.676C250.073 148.627 250.116 148.503 250.067 148.4C249.864 147.973 249.621 147.593 249.339 147.263C249.564 147.128 249.783 147.043 249.982 147.02C250.095 147.007 250.177 146.904 250.164 146.79C250.15 146.677 250.048 146.595 249.934 146.608C249.654 146.641 249.352 146.762 249.051 146.955C248.829 146.739 248.588 146.549 248.328 146.387C247.992 146.178 247.656 145.974 247.315 145.785C247.37 145.795 247.425 145.81 247.48 145.831C247.588 145.87 247.707 145.815 247.746 145.708C247.786 145.6 247.731 145.481 247.623 145.442C247.266 145.31 246.933 145.33 246.63 145.431C245.791 145.035 244.909 144.767 243.921 144.767C243.816 144.767 243.712 144.77 243.61 144.775C243.6 144.73 243.586 144.686 243.566 144.643C243.518 144.539 243.395 144.493 243.292 144.541C243.188 144.589 243.143 144.711 243.19 144.815C242.557 144.9 241.991 145.091 241.473 145.354C241.134 145.19 240.82 145.105 240.675 145.105C240.561 145.105 240.468 145.197 240.468 145.312C240.468 145.426 240.561 145.519 240.675 145.519C240.731 145.519 240.857 145.55 241.017 145.609C240.609 145.86 240.232 146.151 239.873 146.462C239.866 146.438 239.861 146.413 239.859 146.388C239.847 146.274 239.746 146.191 239.632 146.203C239.518 146.214 239.435 146.316 239.447 146.429C239.458 146.541 239.492 146.651 239.546 146.755C239.356 146.931 239.171 147.111 238.988 147.291C238.789 147.488 238.601 147.702 238.427 147.929C237.9 147.954 237.409 148.076 237.126 148.271C237.032 148.336 237.008 148.465 237.073 148.559C237.138 148.653 237.267 148.677 237.361 148.612ZM243.126 145.243C242.974 145.565 242.659 145.938 242.493 146.136C242.486 146.143 242.481 146.15 242.475 146.157C242.459 146.134 242.443 146.111 242.425 146.088C242.284 145.902 242.102 145.741 241.906 145.606C242.303 145.43 242.708 145.309 243.126 145.243Z" fill="#302EA7" stroke="black" stroke-width="0.2"/>
<path d="M248.359 151.968C248.369 151.97 248.379 151.97 248.389 151.97C248.49 151.97 248.579 151.896 248.594 151.793C248.622 151.596 248.551 151.397 248.389 151.216C248.287 151.103 248.085 150.937 247.936 150.937C247.934 150.937 247.931 150.937 247.929 150.937C247.815 150.941 247.725 151.037 247.729 151.151C247.733 151.251 247.806 151.332 247.901 151.348C247.974 151.383 248.208 151.564 248.184 151.734C248.168 151.847 248.246 151.952 248.359 151.968Z" fill="#302EA7" stroke="black" stroke-width="0.2"/>
<path d="M240.51 151.291C240.226 151.377 239.725 151.869 239.648 152.061C239.605 152.167 239.657 152.288 239.763 152.33C239.788 152.34 239.814 152.345 239.84 152.345C239.921 152.345 239.998 152.297 240.031 152.218C240.089 152.105 240.482 151.732 240.629 151.688C240.739 151.655 240.801 151.54 240.768 151.43C240.735 151.321 240.619 151.259 240.51 151.291Z" fill="#302EA7" stroke="black" stroke-width="0.2"/>
<path d="M241.616 154.723C241.906 155.074 242.236 155.473 242.84 155.759C242.869 155.773 242.899 155.779 242.929 155.779C243.006 155.779 243.081 155.735 243.116 155.66C243.165 155.557 243.121 155.434 243.018 155.385C242.672 155.221 242.431 155.015 242.227 154.797C242.271 154.786 242.317 154.774 242.365 154.762C242.809 154.645 243.362 154.5 243.605 154.792C243.646 154.841 243.705 154.867 243.764 154.867C243.811 154.867 243.858 154.851 243.896 154.819C243.984 154.746 243.996 154.615 243.923 154.527C243.512 154.033 242.788 154.222 242.26 154.361C242.135 154.394 242.015 154.425 241.92 154.441C241.522 153.96 241.104 153.467 240.051 153.393C239.937 153.385 239.838 153.471 239.83 153.585C239.822 153.699 239.907 153.798 240.022 153.806C240.91 153.869 241.221 154.246 241.616 154.723Z" fill="#302EA7" stroke="black" stroke-width="0.2"/>
<path d="M251.142 152.517C251.084 152.419 250.957 152.386 250.859 152.444C250.823 152.465 250.759 152.504 250.676 152.556C250.713 152.242 250.732 151.916 250.732 151.579C250.732 151.284 250.718 150.993 250.689 150.709C250.85 150.418 250.951 150.106 250.903 149.753C250.888 149.64 250.784 149.56 250.67 149.575C250.601 149.585 250.545 149.627 250.515 149.684C250.487 149.568 250.456 149.452 250.423 149.339C250.39 149.229 250.275 149.166 250.166 149.198C250.056 149.231 249.993 149.346 250.025 149.455C250.135 149.827 250.214 150.216 250.262 150.618C250.165 150.775 250.047 150.932 249.927 151.092C249.922 151.098 249.917 151.105 249.912 151.111C249.881 151.07 249.845 151.026 249.805 150.976C249.481 150.57 248.939 149.892 249.138 149.365C249.179 149.258 249.125 149.139 249.018 149.098C248.911 149.058 248.792 149.112 248.751 149.219C248.468 149.966 249.103 150.76 249.482 151.234C249.543 151.311 249.614 151.4 249.658 151.462C249.48 151.721 249.326 151.996 249.254 152.308C249.228 152.42 249.297 152.531 249.409 152.557C249.425 152.56 249.44 152.562 249.456 152.562C249.55 152.562 249.635 152.497 249.657 152.402C249.745 152.023 250.006 151.676 250.258 151.34C250.276 151.316 250.294 151.292 250.312 151.268C250.316 151.371 250.318 151.474 250.318 151.578C250.318 152.027 250.283 152.453 250.214 152.855C249.853 153.097 249.463 153.382 249.363 153.535C249.301 153.631 249.329 153.76 249.425 153.822C249.459 153.844 249.498 153.855 249.537 153.855C249.605 153.855 249.671 153.822 249.711 153.761C249.743 153.714 249.885 153.597 250.082 153.453C249.976 153.839 249.836 154.2 249.66 154.533C249.571 154.7 249.474 154.859 249.368 155.012C249.029 155.114 248.71 155.115 248.406 155.018C247.945 154.871 247.555 154.515 247.225 154.139C247.652 154.04 248.109 153.98 248.553 153.936C248.667 153.925 248.75 153.823 248.738 153.709C248.727 153.596 248.625 153.512 248.512 153.524C247.232 153.652 245.84 153.909 245.215 154.844C245.152 154.939 245.177 155.068 245.272 155.131C245.308 155.155 245.348 155.166 245.387 155.166C245.454 155.166 245.52 155.134 245.56 155.074C245.82 154.685 246.262 154.432 246.784 154.262C247.178 154.733 247.661 155.215 248.28 155.413C248.473 155.475 248.669 155.505 248.869 155.505C248.905 155.505 248.94 155.504 248.976 155.502C248.591 155.924 248.125 156.28 247.58 156.566C247.455 156.632 247.33 156.7 247.202 156.77C246.856 156.679 246.477 156.489 246.182 156.316C246.351 156.264 246.527 156.2 246.707 156.119C246.811 156.072 246.857 155.949 246.81 155.845C246.763 155.74 246.641 155.694 246.536 155.741C245.966 155.998 245.43 156.077 245 156.139C244.618 156.195 244.287 156.244 244.043 156.399C243.946 156.46 243.917 156.588 243.979 156.684C244.018 156.747 244.085 156.781 244.154 156.781C244.192 156.781 244.23 156.77 244.264 156.749C244.435 156.641 244.711 156.6 245.06 156.549C245.234 156.524 245.424 156.496 245.627 156.456C245.753 156.541 246.024 156.716 246.352 156.879C246.475 156.941 246.594 156.994 246.709 157.04C245.819 157.524 244.899 157.976 243.92 157.976C243.082 157.976 242.323 157.854 241.651 157.613C241.684 157.435 241.696 157.256 241.688 157.075C241.776 157.061 241.875 157.037 241.987 157.01C242.297 156.935 242.682 156.842 242.997 156.951C243.105 156.988 243.223 156.931 243.261 156.823C243.298 156.715 243.241 156.597 243.133 156.559C242.703 156.41 242.233 156.524 241.89 156.607C241.809 156.627 241.71 156.651 241.634 156.664C241.595 156.484 241.537 156.303 241.458 156.123C241.207 155.551 240.806 155.122 240.651 155.003C240.56 154.934 240.43 154.951 240.361 155.042C240.291 155.133 240.309 155.263 240.4 155.332C240.464 155.381 240.84 155.745 241.079 156.289C241.166 156.488 241.224 156.686 241.254 156.881C241.255 156.892 241.257 156.904 241.259 156.914C241.284 157.096 241.284 157.276 241.259 157.454C240.989 157.331 240.735 157.188 240.497 157.023C240.403 156.957 240.274 156.981 240.208 157.075C240.143 157.169 240.167 157.298 240.261 157.363C240.539 157.556 240.838 157.723 241.156 157.862C241.113 157.981 241.057 158.099 240.99 158.215C240.934 158.314 240.968 158.441 241.067 158.498C241.099 158.517 241.135 158.525 241.17 158.525C241.242 158.525 241.311 158.488 241.35 158.421C241.426 158.288 241.49 158.151 241.541 158.013C242.251 158.264 243.046 158.39 243.92 158.39C245.116 158.39 246.227 157.778 247.208 157.239C247.227 157.228 247.246 157.218 247.265 157.207C247.373 157.227 247.475 157.237 247.57 157.237C247.671 157.237 247.766 157.226 247.853 157.203C247.964 157.175 248.031 157.062 248.003 156.952C247.991 156.908 247.967 156.871 247.935 156.844C248.621 156.458 249.187 155.962 249.625 155.364C249.934 155.252 250.254 155.073 250.586 154.826C250.678 154.758 250.697 154.628 250.629 154.536C250.561 154.444 250.431 154.425 250.339 154.494C250.238 154.569 250.138 154.637 250.04 154.698C250.292 154.215 250.476 153.681 250.59 153.101C250.749 152.996 250.913 152.893 251.069 152.801C251.168 152.743 251.2 152.616 251.142 152.517Z" fill="#302EA7" stroke="black" stroke-width="0.2"/>
<path d="M239.124 155.511C239.223 155.217 239.357 154.966 239.509 154.799C239.585 154.714 239.579 154.583 239.494 154.506C239.409 154.43 239.278 154.436 239.201 154.521C239.074 154.662 238.965 154.836 238.874 155.027C238.755 154.794 238.626 154.559 238.5 154.331C238.159 153.714 237.81 153.082 237.636 152.416C237.701 152.194 237.781 152.004 237.874 151.837C237.88 151.843 237.885 151.849 237.891 151.855C238.19 152.159 238.813 152.793 238.813 153.271C238.813 153.386 238.906 153.478 239.02 153.478C239.134 153.478 239.227 153.386 239.227 153.271C239.227 152.624 238.55 151.935 238.187 151.565C238.162 151.539 238.136 151.513 238.112 151.488C238.417 151.12 238.806 150.884 239.235 150.623C239.311 150.577 239.387 150.531 239.464 150.483C239.561 150.423 239.591 150.295 239.531 150.198C239.471 150.101 239.343 150.071 239.246 150.131C239.17 150.178 239.095 150.224 239.02 150.269C238.528 150.568 238.05 150.859 237.685 151.365C237.684 151.367 237.682 151.369 237.68 151.371C237.679 151.373 237.679 151.374 237.678 151.375C237.624 151.451 237.572 151.532 237.524 151.618C237.523 151.605 237.523 151.592 237.523 151.579C237.523 151.352 237.54 151.119 237.575 150.887C237.591 150.774 237.513 150.669 237.4 150.652C237.287 150.636 237.182 150.714 237.165 150.827C237.128 151.079 237.109 151.332 237.109 151.579C237.109 151.867 237.146 152.145 237.209 152.416C237.115 152.774 237.055 153.199 237.036 153.711C237.032 153.825 237.121 153.921 237.236 153.925C237.238 153.925 237.241 153.925 237.243 153.925C237.354 153.925 237.446 153.837 237.45 153.726C237.456 153.553 237.467 153.392 237.483 153.24C237.67 153.684 237.905 154.111 238.137 154.531C238.299 154.823 238.451 155.099 238.585 155.377C238.614 155.437 238.644 155.497 238.676 155.556C238.522 156.094 238.499 156.634 238.619 156.854C238.657 156.923 238.728 156.962 238.801 156.962C238.835 156.962 238.869 156.954 238.9 156.937C239.001 156.882 239.038 156.757 238.983 156.656C238.956 156.605 238.938 156.393 238.987 156.074C239.142 156.302 239.313 156.514 239.498 156.709C239.539 156.752 239.593 156.774 239.648 156.774C239.699 156.774 239.751 156.755 239.791 156.717C239.874 156.638 239.877 156.507 239.798 156.424C239.542 156.154 239.316 155.848 239.124 155.511Z" fill="#302EA7" stroke="black" stroke-width="0.2"/>
<path d="M245.248 151.546C245.389 151.687 245.574 151.758 245.759 151.758C245.945 151.758 246.13 151.687 246.271 151.546L246.536 151.281C246.602 151.215 246.638 151.128 246.638 151.035C246.638 150.942 246.602 150.855 246.536 150.789L246.005 150.258C245.94 150.193 245.852 150.156 245.759 150.156C245.666 150.156 245.579 150.193 245.513 150.258L245.248 150.524C244.966 150.806 244.966 151.264 245.248 151.546L245.248 151.546ZM245.541 150.817L245.759 150.598L246.196 151.035L245.978 151.254C245.857 151.374 245.661 151.374 245.541 151.254C245.42 151.133 245.42 150.937 245.541 150.817Z" fill="#302EA7" stroke="black" stroke-width="0.2"/>
<path d="M238.441 149.447C238.358 149.526 238.356 149.657 238.435 149.74C238.476 149.782 238.53 149.803 238.584 149.803C238.636 149.803 238.688 149.784 238.728 149.746C238.848 149.63 239.093 149.578 239.237 149.604C239.349 149.624 239.457 149.55 239.478 149.437C239.498 149.325 239.423 149.217 239.311 149.197C239.062 149.152 238.673 149.224 238.441 149.447Z" fill="#302EA7" stroke="black" stroke-width="0.2"/>
<path d="M242.305 153.425C242.345 153.467 242.399 153.488 242.453 153.488C242.505 153.488 242.557 153.469 242.598 153.43C242.68 153.35 242.682 153.219 242.602 153.137C242.396 152.925 241.95 151.856 242.208 151.222C242.364 150.839 242.426 150.158 242.37 149.445C242.341 149.081 242.234 148.189 241.87 147.784C241.794 147.699 241.663 147.692 241.578 147.769C241.493 147.845 241.486 147.976 241.562 148.061C241.753 148.273 241.904 148.816 241.957 149.478C241.984 149.824 241.982 150.164 241.953 150.455C241.563 149.785 240.975 149.532 240.625 149.381C240.543 149.346 240.473 149.316 240.424 149.289C240.324 149.233 240.198 149.269 240.143 149.369C240.087 149.469 240.123 149.595 240.223 149.651C240.29 149.688 240.369 149.722 240.461 149.761C240.885 149.944 241.521 150.218 241.799 151.137C241.52 151.953 242.004 153.115 242.305 153.425Z" fill="#302EA7" stroke="black" stroke-width="0.2"/>
<path d="M212.208 149.274C213.698 148.204 215.385 148.087 217.091 148.433C218.587 148.737 220.087 149.394 221.463 150.068L222.045 150.357H222.046C223.619 151.13 225.249 151.694 226.992 152.089L227.746 152.248C229.052 152.5 230.01 152.311 230.85 151.842C231.679 151.38 232.388 150.646 233.198 149.836C233.443 149.591 233.646 149.592 233.739 149.641C233.822 149.685 233.894 149.808 233.8 150.009C232.758 151.604 231.458 152.524 229.964 152.86C228.557 153.176 226.96 152.979 225.221 152.315L224.872 152.176C223.898 151.773 222.913 151.264 221.91 150.759C220.909 150.256 219.89 149.757 218.86 149.382C216.926 148.678 214.933 148.403 212.907 149.354L212.501 149.561L212.495 149.565C212.36 149.648 212.235 149.603 212.168 149.521C212.135 149.479 212.121 149.433 212.124 149.395C212.127 149.369 212.138 149.339 212.168 149.307L212.206 149.275L212.208 149.274Z" fill="#302EA7" stroke="black" stroke-width="0.3"/>
<path d="M201.681 140.423C201.72 140.433 201.752 140.451 201.775 140.483L201.795 140.518L201.797 140.523C202.585 142.217 203.613 143.659 204.942 144.641C206.275 145.626 207.903 146.143 209.879 145.996L209.878 145.995C213.319 145.762 216.53 144.478 219.702 143.44L219.701 143.439C222.681 142.485 225.758 141.726 228.633 141.869C231.41 142.007 233.999 142.989 236.131 145.465L236.336 145.71C236.538 145.957 236.475 146.26 236.289 146.44C236.197 146.529 236.082 146.58 235.964 146.58C235.877 146.579 235.779 146.552 235.679 146.475L235.578 146.382C233.238 143.516 230.262 142.748 227.047 142.945C223.84 143.142 220.374 144.3 217.043 145.297C213.697 146.297 210.49 147.132 207.757 146.725C206.396 146.523 205.154 146.012 204.071 145.059C203.055 144.165 202.171 142.874 201.461 141.066L201.321 140.698L201.318 140.69L201.307 140.652C201.3 140.616 201.309 140.585 201.327 140.555C201.355 140.511 201.409 140.467 201.48 140.44C201.551 140.413 201.624 140.408 201.681 140.423Z" fill="#302EA7" stroke="black" stroke-width="0.3"/>
<path d="M251.651 155.657C251.16 156.851 249.606 158.553 247.463 159.42C246.538 159.794 246.672 160.391 247.152 160.336C248.706 160.156 250.98 158.504 251.994 156.639C253.044 154.709 252.457 153.694 251.651 155.657Z" fill="#302EA7" stroke="black" stroke-width="0.2"/>
<path d="M242.465 160.385C241.406 160.431 239.678 159.937 238.452 158.804C237.923 158.315 237.49 158.586 237.656 158.882C238.195 159.841 240.068 160.82 241.786 160.91C243.563 161.004 244.206 160.31 242.465 160.385Z" fill="#302EA7" stroke="black" stroke-width="0.2"/>
<defs>
<filter id="filter0_i_205_2" x="0" y="0" width="330.546" height="234.476" filterUnits="userSpaceOnUse" color-interpolation-filters="sRGB">
<feFlood flood-opacity="0" result="BackgroundImageFix"/>
<feBlend mode="normal" in="SourceGraphic" in2="BackgroundImageFix" result="shape"/>
<feColorMatrix in="SourceAlpha" type="matrix" values="0 0 0 0 0 0 0 0 0 0 0 0 0 0 0 0 0 0 127 0" result="hardAlpha"/>
<feOffset dy="6.1386"/>
<feGaussianBlur stdDeviation="8.1848"/>
<feComposite in2="hardAlpha" operator="arithmetic" k2="-1" k3="1"/>
<feColorMatrix type="matrix" values="0 0 0 0 0 0 0 0 0 0 0 0 0 0 0 0 0 0 0.25 0"/>
<feBlend mode="normal" in2="shape" result="effect1_innerShadow_205_2"/>
</filter>
<linearGradient id="paint0_linear_205_2" x1="262.808" y1="-15.6116" x2="292.879" y2="53.3355" gradientUnits="userSpaceOnUse">
<stop stop-color="#32187C"/>
<stop offset="1" stop-color="#302EA7"/>
</linearGradient>
<linearGradient id="paint1_linear_205_2" x1="261.092" y1="10.5857" x2="263.288" y2="20.3455" gradientUnits="userSpaceOnUse">
<stop stop-color="#1C113D"/>
<stop offset="1" stop-color="#302EA7"/>
</linearGradient>
<linearGradient id="paint2_linear_205_2" x1="295.784" y1="-0.647629" x2="296.381" y2="2.4477" gradientUnits="userSpaceOnUse">
<stop stop-color="#32187C"/>
<stop offset="1" stop-color="#302EA7"/>
</linearGradient>
<linearGradient id="paint3_linear_205_2" x1="307.969" y1="23.7482" x2="309.367" y2="28.584" gradientUnits="userSpaceOnUse">
<stop stop-color="#32187C"/>
<stop offset="1" stop-color="#302EA7"/>
</linearGradient>
<linearGradient id="paint4_linear_205_2" x1="281.874" y1="36.9173" x2="284.439" y2="50.2727" gradientUnits="userSpaceOnUse">
<stop stop-color="#1C113D"/>
<stop offset="1" stop-color="#302EA7"/>
</linearGradient>
<linearGradient id="paint5_linear_205_2" x1="246.96" y1="28.1238" x2="252.019" y2="36.8855" gradientUnits="userSpaceOnUse">
<stop stop-color="#32187C"/>
<stop offset="1" stop-color="#302EA7"/>
</linearGradient>
<linearGradient id="paint6_linear_205_2" x1="247.864" y1="27.7805" x2="252.165" y2="37.6551" gradientUnits="userSpaceOnUse">
<stop stop-color="#32187C"/>
<stop offset="1" stop-color="#302EA7"/>
</linearGradient>
<linearGradient id="paint7_linear_205_2" x1="278.426" y1="54.3" x2="278.473" y2="55.8973" gradientUnits="userSpaceOnUse">
<stop stop-color="#32187C"/>
<stop offset="1" stop-color="#302EA7"/>
</linearGradient>
<linearGradient id="paint8_linear_205_2" x1="278.466" y1="53.1835" x2="278.604" y2="55.9142" gradientUnits="userSpaceOnUse">
<stop stop-color="#1C113D"/>
<stop offset="1" stop-color="#302EA7"/>
</linearGradient>
<linearGradient id="paint9_linear_205_2" x1="309.403" y1="32.1428" x2="312.982" y2="40.3182" gradientUnits="userSpaceOnUse">
<stop stop-color="#32187C"/>
<stop offset="1" stop-color="#302EA7"/>
</linearGradient>
<linearGradient id="paint10_linear_205_2" x1="308.472" y1="31.6981" x2="311.674" y2="40.3783" gradientUnits="userSpaceOnUse">
<stop stop-color="#2B1961"/>
<stop offset="1" stop-color="#302EA7"/>
</linearGradient>
<linearGradient id="paint11_linear_205_2" x1="305.632" y1="-0.467418" x2="307.224" y2="4.58509" gradientUnits="userSpaceOnUse">
<stop stop-color="#32187C"/>
<stop offset="1" stop-color="#302EA7"/>
</linearGradient>
<linearGradient id="paint12_linear_205_2" x1="305.117" y1="-0.210269" x2="306.651" y2="5.04298" gradientUnits="userSpaceOnUse">
<stop stop-color="#32187C"/>
<stop offset="1" stop-color="#302EA7"/>
</linearGradient>
<linearGradient id="paint13_linear_205_2" x1="300.608" y1="36.8668" x2="301.642" y2="41.7614" gradientUnits="userSpaceOnUse">
<stop stop-color="#21183C"/>
<stop offset="1" stop-color="#302EA7"/>
</linearGradient>
</defs>
</svg>
